<svg width="48" height="47" viewBox="0 0 48 47" fill="none" xmlns="http://www.w3.org/2000/svg">
<g clip-path="url(#clip0_387_12)">
<path d="M8.5 0H39.5C44.2 0 48 3.89744 48 8.71795V39.2821C48 44.1026 44.2 48 39.5 48H8.5C3.8 48 0 44.1026 0 39.2821V8.71795C0 3.89744 3.8 0 8.5 0Z" fill="#001E36"/>
<path d="M11 35.1815V10.4093C11 10.2407 11.054 10.1444 11.18 10.1444C11.4861 10.1444 11.7742 10.1444 12.1883 10.1204C12.6204 10.0963 13.0705 10.0963 13.5566 10.0722C14.0428 10.0481 14.5649 10.0481 15.123 10.0241C15.6812 10 16.2213 10 16.7614 10C18.2378 10 19.4621 10.2407 20.4704 10.7463C21.3706 11.1556 22.1988 11.8296 22.883 12.7204C23.4591 13.4907 23.9092 14.4296 24.1973 15.4648C24.4674 16.4759 24.6114 17.5111 24.6114 18.5944C24.6114 20.6648 24.2513 22.3741 23.5311 23.7222C22.811 25.0704 21.8027 26.0815 20.6324 26.6593C19.4081 27.2611 18.0578 27.4778 16.5814 27.4778C16.1493 27.4778 15.8612 27.4778 15.6812 27.4537C15.5011 27.4296 15.2491 27.4296 14.907 27.4296V35.1574C14.925 35.3259 14.835 35.4704 14.7089 35.4944H11.2161C11.072 35.4944 11 35.3982 11 35.1815ZM14.925 14.7907V22.8796C15.177 22.9037 15.4111 22.9278 15.6272 22.9278H16.5814C17.2836 22.9278 17.9857 22.7833 18.6519 22.4944C19.2281 22.2778 19.7322 21.8204 20.1283 21.2185C20.5064 20.6167 20.6864 19.7981 20.6864 18.7389C20.7044 17.9926 20.5604 17.2463 20.2723 16.5963C19.9662 15.9704 19.5341 15.4889 19.012 15.2241C18.3458 14.863 17.6257 14.7185 16.8875 14.7426C16.4194 14.7426 16.0053 14.7426 15.6632 14.7667C15.3031 14.7426 15.051 14.7667 14.925 14.7907ZM35.8462 21.4111C35.3061 21.0259 34.7299 20.7611 34.1178 20.5926C33.4516 20.4 32.7854 20.2796 32.1013 20.2796C31.7412 20.2556 31.3631 20.3278 31.021 20.4481C30.7869 20.5204 30.5889 20.6889 30.4629 20.9296C30.3728 21.1222 30.3188 21.363 30.3188 21.5796C30.3188 21.7963 30.3908 22.013 30.4989 22.2056C30.6609 22.4704 30.877 22.687 31.111 22.8556C31.5251 23.1444 31.9572 23.4093 32.3893 23.65C33.3616 24.0833 34.2978 24.6852 35.162 25.4074C35.7562 25.913 36.2423 26.587 36.5844 27.4056C36.8725 28.1759 37.0165 29.0185 36.9985 29.8852C37.0165 31.0167 36.7644 32.1481 36.2963 33.087C35.7922 34.05 35.09 34.7963 34.2798 35.2296C33.3976 35.7352 32.3173 36 31.021 36C30.1928 36 29.3826 35.9037 28.5724 35.687C27.9422 35.5426 27.3121 35.2778 26.7359 34.9167C26.6099 34.8204 26.5199 34.6519 26.5379 34.4593V30.2704C26.5379 30.1981 26.5559 30.1019 26.6099 30.0537C26.6639 30.0056 26.7179 30.0296 26.7719 30.0778C27.4741 30.6315 28.2123 31.0167 29.0045 31.2574C29.6887 31.4981 30.4089 31.6185 31.129 31.6185C31.8132 31.6185 32.2993 31.4981 32.6234 31.2815C32.9115 31.113 33.1095 30.7037 33.1095 30.2704C33.1095 29.9333 32.9655 29.6204 32.6774 29.3074C32.3893 28.9944 31.7952 28.6333 30.913 28.1759C29.9947 27.7426 29.1485 27.1648 28.3563 26.4426C27.7982 25.913 27.3301 25.2148 26.988 24.3963C26.6999 23.6259 26.5559 22.7833 26.5739 21.9407C26.5739 20.9056 26.7899 19.9185 27.186 19.0278C27.6362 18.0648 28.3023 17.2944 29.0765 16.813C29.9227 16.2352 30.985 15.9704 32.2633 15.9704C33.0015 15.9704 33.7577 16.0426 34.4959 16.187C35.036 16.2833 35.5581 16.4759 36.0443 16.7407C36.1163 16.7648 36.1883 16.8611 36.2243 16.9574C36.2423 17.0537 36.2603 17.15 36.2603 17.2463V21.1704C36.2603 21.2667 36.2243 21.363 36.1703 21.4111C36.0083 21.4593 35.9182 21.4593 35.8462 21.4111Z" fill="#31A8FF"/>
</g>
<defs>
<clipPath id="clip0_387_12">
<rect width="48" height="46.8387" fill="white"/>
</clipPath>
</defs>
</svg>
