<svg width="48" height="48" fill="none" xmlns="http://www.w3.org/2000/svg"><rect width="48" height="48" rx="15" fill="url(#a)"/><g filter="url(#b)"><path d="M36 18.412a1.497 1.497 0 0 0-.242-.784 1.666 1.666 0 0 0-.631-.57 1.773 1.773 0 0 0-.826-.199c-.29.002-.574.073-.824.206L14.054 27.404v-8.032c0-.122.036-.241.102-.347a.727.727 0 0 1 .278-.253l8.692-4.626a.816.816 0 0 1 .75.001l2.057 1.095-9.447 5.028v3.25l15.553-8.278-7.46-3.97c-.693-.356-1.405-.364-2.128-.016L12.088 16.77c-.669.355-1.055.951-1.088 1.69v11.114c.01.588.32 1.084.848 1.36.257.134.547.204.842.203.295 0 .585-.071.841-.206l19.415-10.334v8.025a.654.654 0 0 1-.099.347.726.726 0 0 1-.273.255l-8.695 4.628a.817.817 0 0 1-.751.003l-2.06-1.096 9.446-5.028v-3.25L14.96 32.76l7.479 3.98c.329.173.702.263 1.08.26.38-.003.75-.1 1.076-.28l10.357-5.512c.677-.385 1.049-.994 1.047-1.714V18.412Z" fill="#fff"/></g><defs><linearGradient id="a" x1="24" y1="0" x2="24" y2="48" gradientUnits="userSpaceOnUse"><stop stop-color="#05C3FF"/><stop offset="1" stop-color="#0075FF"/></linearGradient><filter id="b" x="8" y="11" width="33" height="34" filterUnits="userSpaceOnUse" color-interpolation-filters="sRGB"><feFlood flood-opacity="0" result="BackgroundImageFix"/><feColorMatrix in="SourceAlpha" values="0 0 0 0 0 0 0 0 0 0 0 0 0 0 0 0 0 0 127 0" result="hardAlpha"/><feOffset dx="1" dy="4"/><feGaussianBlur stdDeviation="2"/><feComposite in2="hardAlpha" operator="out"/><feColorMatrix values="0 0 0 0 0.1125 0 0 0 0 0.1125 0 0 0 0 0.1125 0 0 0 0.25 0"/><feBlend in2="BackgroundImageFix" result="effect1_dropShadow_205_49"/><feBlend in="SourceGraphic" in2="effect1_dropShadow_205_49" result="shape"/></filter></defs></svg>