<svg width="119" height="18" fill="none" xmlns="http://www.w3.org/2000/svg"><path d="M10.934 17.556h4.618V.946h-4.618v6.243H5.303V.945H.685v16.611h4.618v-6.668h5.63v6.668ZM31.719 4.338h-4.642v7.092c0 1.532-.848 2.427-2.19 2.427-1.32 0-2.192-.895-2.192-2.427V4.338H18.1v7.681c0 3.487 1.909 5.655 4.972 5.655 1.861 0 3.252-.872 4.005-2.003v1.885h4.642V4.338Zm20.63 13.218h4.618V9.851c0-3.463-2.003-5.63-5.349-5.63-1.955 0-3.51 1.083-4.406 2.426-.872-1.531-2.427-2.427-4.406-2.427-1.79 0-3.086.801-3.84 1.862V4.338h-4.619v13.218h4.618v-7.092c0-1.437.849-2.238 2.215-2.238 1.32 0 2.168.8 2.168 2.238v7.092h4.618v-7.092c0-1.437.848-2.238 2.191-2.238 1.32 0 2.192.8 2.192 2.238v7.092Zm6.394-6.62c0 4.217 2.497 6.785 5.63 6.785 1.862 0 3.205-.825 3.888-2.003v1.838h4.619V4.338H68.26v1.838c-.683-1.178-2.002-2.003-3.887-2.003-3.134 0-5.631 2.545-5.631 6.762Zm9.518 0c0 1.79-1.107 2.756-2.403 2.756-1.32 0-2.403-.99-2.403-2.757 0-1.79 1.084-2.733 2.403-2.733 1.296 0 2.403.966 2.403 2.733Zm6.496 0c0 4.217 2.498 6.785 5.631 6.785 1.862 0 3.205-.825 3.888-2.003v1.838h4.618V4.338h-4.618v1.838c-.683-1.178-2.003-2.003-3.888-2.003-3.133 0-5.63 2.545-5.63 6.762Zm9.519 0c0 1.79-1.108 2.756-2.403 2.756-1.32 0-2.404-.99-2.404-2.757 0-1.79 1.084-2.733 2.404-2.733 1.295 0 2.403.966 2.403 2.733Zm16.25 6.62h4.618V9.851c0-3.463-1.908-5.63-4.971-5.63-1.862 0-3.252.87-4.03 2.002V4.338h-4.617v13.218h4.618v-7.092c0-1.531.848-2.427 2.215-2.427 1.319 0 2.167.896 2.167 2.427v7.092Zm18.273-3.888c-.023-5.018-7.068-3.51-7.068-5.395 0-.495.4-.801 1.154-.801.99 0 1.579.494 1.72 1.32h4.171c-.307-2.616-2.192-4.619-5.797-4.619-3.581 0-5.489 1.909-5.489 4.218 0 4.853 7.021 3.275 7.021 5.207 0 .471-.448.848-1.225.848-.966 0-1.697-.471-1.814-1.343h-4.477c.188 2.639 2.639 4.618 6.314 4.618 3.417 0 5.49-1.744 5.49-4.053Z" fill="#010E17"/></svg>