<svg width="120" height="18" fill="none" xmlns="http://www.w3.org/2000/svg"><path d="M11.148 17.556h4.618V.946h-4.618v6.243H5.517V.945H.899v16.611h4.618v-6.668h5.631v6.668ZM31.933 4.338h-4.641v7.092c0 1.532-.848 2.427-2.191 2.427-1.32 0-2.192-.895-2.192-2.427V4.338h-4.594v7.681c0 3.487 1.908 5.655 4.971 5.655 1.862 0 3.252-.872 4.006-2.003v1.885h4.641V4.338Zm20.63 13.218h4.618V9.851c0-3.463-2.003-5.63-5.348-5.63-1.956 0-3.511 1.083-4.407 2.426C46.554 5.116 45 4.22 43.021 4.22c-1.791 0-3.087.801-3.841 1.862V4.338h-4.618v13.218h4.618v-7.092c0-1.437.848-2.238 2.215-2.238 1.32 0 2.167.8 2.167 2.238v7.092h4.619v-7.092c0-1.437.848-2.238 2.19-2.238 1.32 0 2.192.8 2.192 2.238v7.092Zm6.394-6.62c0 4.217 2.498 6.785 5.631 6.785 1.862 0 3.205-.825 3.888-2.003v1.838h4.618V4.338h-4.618v1.838c-.683-1.178-2.003-2.003-3.888-2.003-3.133 0-5.631 2.545-5.631 6.762Zm9.519 0c0 1.79-1.108 2.756-2.403 2.756-1.32 0-2.404-.99-2.404-2.757 0-1.79 1.084-2.733 2.404-2.733 1.296 0 2.403.966 2.403 2.733Zm6.496 0c0 4.217 2.497 6.785 5.63 6.785 1.862 0 3.205-.825 3.888-2.003v1.838h4.618V4.338H84.49v1.838c-.683-1.178-2.002-2.003-3.887-2.003-3.134 0-5.631 2.545-5.631 6.762Zm9.518 0c0 1.79-1.107 2.756-2.403 2.756-1.32 0-2.403-.99-2.403-2.757 0-1.79 1.084-2.733 2.403-2.733 1.296 0 2.403.966 2.403 2.733Zm16.251 6.62h4.618V9.851c0-3.463-1.909-5.63-4.972-5.63-1.861 0-3.251.87-4.029 2.002V4.338H91.74v13.218h4.618v-7.092c0-1.531.848-2.427 2.215-2.427 1.32 0 2.168.896 2.168 2.427v7.092Zm18.273-3.888c-.024-5.018-7.069-3.51-7.069-5.395 0-.495.401-.801 1.155-.801.989 0 1.578.494 1.72 1.32h4.17c-.306-2.616-2.191-4.619-5.796-4.619-3.581 0-5.49 1.909-5.49 4.218 0 4.853 7.021 3.275 7.021 5.207 0 .471-.447.848-1.225.848-.966 0-1.696-.471-1.814-1.343h-4.477c.189 2.639 2.639 4.618 6.315 4.618 3.416 0 5.49-1.744 5.49-4.053Z" fill="#fff"/></svg>