<svg width="131" height="34" fill="none" xmlns="http://www.w3.org/2000/svg"><mask id="a" style="mask-type:luminance" maskUnits="userSpaceOnUse" x="0" y="0" width="131" height="34"><path d="M130.143.71H.821v32.83h129.322V.71Z" fill="#fff"/></mask><g mask="url(#a)" fill="#fff"><path d="M88.477 15.7h-3.495v-3.106h3.48V8.875h3.45v3.685h4.145v3.125h-4.09c0 2.066-.051 4.037.023 6.004.035.936.774 1.49 1.798 1.54.519.024 1.042-.041 1.668-.07l.513 2.957c-3.402 1.676-7.254-.698-7.463-4.593-.087-1.631-.025-3.27-.03-4.905V15.7ZM106.84 15.7h-3.502v-3.126h3.491v-3.71h3.416v3.698h4.2v3.136h-4.074c0 2.08-.058 4.075.025 6.066.038.915.752 1.417 1.765 1.462.52.024 1.045-.044 1.657-.075l.527 2.96c-3.199 1.59-7.168-.603-7.411-4.111-.121-1.76-.068-3.532-.093-5.3-.005-.307-.001-.613-.001-1ZM36.272 12.607h3.355v13.6h-3.355v-13.6ZM101.704 12.628v13.57h-3.305v-13.57h3.305ZM37.927 10.122c-1.283-.007-2.247-1.021-2.23-2.346.018-1.324 1.013-2.339 2.273-2.322 1.26.016 2.255 1.058 2.245 2.362-.01 1.304-1.012 2.314-2.288 2.306ZM100.079 10.123c-1.286.012-2.273-.975-2.298-2.293-.024-1.299.967-2.357 2.227-2.376 1.26-.018 2.28 1 2.3 2.305.019 1.316-.957 2.352-2.229 2.364ZM51.534 6.366v7.078c-.24-.14-.393-.227-.544-.316a5.871 5.871 0 0 0-7.488 1.286c-1.539 1.83-1.99 3.965-1.672 6.292.508 3.701 3.66 6.24 7.201 5.703a6.108 6.108 0 0 0 2.641-1.081l.01.88c1.081 0 2.218-.006 3.297-.006V6.366h-3.445Zm-.958 16.086c-1.02.632-2.074.86-3.217.436-1.398-.52-2.358-2.193-2.178-3.754.225-1.948 1.261-3.186 2.934-3.388 1.326-.16 2.397.408 3.247 1.399.06.073.124.142.193.207.026.55.008 1.551.009 2.104 0 .157-.012.316-.007.474 0 .052.004 1.611.01 1.664 0 0-.078.292-.991.858ZM77.56 12.45c-1.148.112-2.306.789-3.182 1.307l-.023-1.136h-3.2v13.572h3.375v-.91c0-2.4-.057-5.84-.003-8.24a6.75 6.75 0 0 1 .598-.55c.551-.443 1.227-.83 1.912-.993 1.443-.345 2.82.78 3.124 2.374.093.487.111.995.114 1.493.012 2.263.005 4.525.005 6.814h3.314c0-2.963.158-5.871-.04-8.753-.226-3.207-2.965-5.275-5.994-4.978ZM68.575 16.972c-1.236-4.517-6.227-6.157-9.612-3.168-1.453 1.283-2.113 3-2.264 4.9-.391 4.917 3.021 8.332 7.624 7.723 1.716-.228 3.173-.971 4.272-2.404l-1.944-2.053c-1.318 1.258-2.758 1.983-4.535 1.28-1.218-.484-1.865-1.458-2.08-2.913h.969c2.39 0 5.458-.005 7.848.02l.005-.715c-.025-.893-.05-1.819-.284-2.67Zm-8.292.617c.142-1.335 1.315-2.302 2.69-2.266.598.016 1.168.26 1.594.68.427.42.68.987.706 1.586h-4.99Z"/><path d="M36.272 26.208h3.355V12.607h-3.355v13.6ZM37.97 5.454c-1.26-.017-2.255 1-2.273 2.322-.017 1.322.947 2.339 2.23 2.346 1.276.008 2.278-1.002 2.288-2.306.01-1.303-.98-2.346-2.245-2.362ZM126.594 12.622l-1.137 2.497c-.043.096-.081.195-.121.292l-2.227 5.254c-.178-.365-.305-.619-.422-.875-1.006-2.2-2.003-4.406-3.024-6.6-.109-.235-.342-.572-.531-.58-1.141-.055-2.286-.028-3.523-.028.168.385.277.647.396.903 1.367 2.934 2.639 5.917 4.139 8.78.923 1.758 1.18 2.459 1.18 2.459L119.9 28.58l-1.593 4.37h3.629c2.11-5.277 4.56-11.288 6.695-16.554.499-1.232.989-2.468 1.512-3.775h-3.549ZM91.911 8.875h-3.449v3.719h-3.48V15.7h3.495v.917c.005 1.635-.057 3.273.03 4.904.21 3.897 4.06 6.269 7.463 4.593l-.513-2.957c-.626.03-1.149.095-1.668.07-1.024-.05-1.763-.603-1.798-1.54-.074-1.966-.022-3.937-.022-6.004h4.09v-3.125H91.91V8.875ZM100.006 5.454c-1.258.02-2.25 1.078-2.227 2.376.025 1.32 1.013 2.305 2.298 2.293 1.272-.012 2.248-1.048 2.227-2.364-.018-1.304-1.035-2.324-2.298-2.305ZM110.245 8.865h-3.415v3.71h-3.49V15.7h3.501c0 .387-.003.695 0 1.002.025 1.767-.028 3.54.093 5.3.243 3.508 4.212 5.702 7.411 4.11l-.527-2.958c-.612.03-1.136.098-1.657.073-1.012-.046-1.727-.548-1.765-1.46-.081-1.99-.025-3.988-.025-6.067h4.073v-3.138h-4.199V8.865ZM98.399 26.199h3.305V12.628h-3.305v13.57ZM24.248 17.123c.92-.96 1.727-1.923 2.394-2.864 1.973-2.786 2.51-5.106 1.515-6.536-.996-1.429-3.355-1.72-6.641-.823-.57.156-1.157.345-1.758.563a22.88 22.88 0 0 0-.546-1.767C18.062 2.482 16.472.71 14.733.71c-1.739 0-3.328 1.772-4.477 4.988-.199.557-.38 1.148-.546 1.767-.601-.219-1.189-.406-1.758-.563-3.287-.898-5.647-.606-6.64.823-.995 1.429-.458 3.75 1.515 6.535a25.55 25.55 0 0 0 2.393 2.865 25.58 25.58 0 0 0-2.393 2.865C.854 22.775.316 25.096 1.31 26.525c.617.886 1.757 1.335 3.317 1.335.958 0 2.075-.17 3.326-.512.57-.155 1.157-.344 1.758-.562.165.619.347 1.21.546 1.767 1.148 3.216 2.738 4.987 4.477 4.987 1.739 0 3.329-1.771 4.477-4.987a22.85 22.85 0 0 0 .546-1.767c.6.218 1.189.406 1.758.562 1.251.343 2.368.512 3.326.512 1.56 0 2.7-.45 3.316-1.335.996-1.428.458-3.75-1.515-6.535a25.852 25.852 0 0 0-2.395-2.867ZM21.77 7.84c1.178-.322 2.22-.482 3.087-.482 1.21 0 2.079.31 2.506.923.732 1.051.182 3.026-1.51 5.416a24.566 24.566 0 0 1-2.285 2.735 40.354 40.354 0 0 0-2.772-2.474c-.14-1.977-.412-3.85-.802-5.545a22.245 22.245 0 0 1 1.776-.573Zm-4.057 13.558a43.958 43.958 0 0 1-2.979 1.914A45.152 45.152 0 0 1 9.612 19.8a45.168 45.168 0 0 1-.081-2.677c0-.924.028-1.816.08-2.676a47.495 47.495 0 0 1 2.144-1.597 43.69 43.69 0 0 1 2.978-1.91 43.162 43.162 0 0 1 5.122 3.511 45.426 45.426 0 0 1 0 5.345c-.686.546-1.4 1.08-2.143 1.604v-.002Zm2.046-.295a34.324 34.324 0 0 1-.672 4.39 33.275 33.275 0 0 1-3.384-1.63 44.648 44.648 0 0 0 4.056-2.757v-.003Zm-5.993 2.76a33.34 33.34 0 0 1-3.384 1.631 34.308 34.308 0 0 1-.672-4.39c.486.37.983.733 1.49 1.091a43.34 43.34 0 0 0 2.566 1.67v-.001Zm-5.163-4.889a34.552 34.552 0 0 1-2.032-1.85c.62-.61 1.298-1.227 2.032-1.85-.025.61-.04 1.228-.04 1.85 0 .623.015 1.242.04 1.852v-.002Zm1.107-5.828c.128-1.473.352-2.936.67-4.38a33.472 33.472 0 0 1 3.38 1.624 45.478 45.478 0 0 0-2.56 1.664c-.509.358-1.006.722-1.49 1.092Zm5.998-2.757a33.52 33.52 0 0 1 3.381-1.624c.318 1.445.541 2.908.67 4.381a45.11 45.11 0 0 0-4.051-2.757Zm5.158 4.893a37.394 37.394 0 0 1 2.023 1.844 36.747 36.747 0 0 1-2.023 1.844c.025-.61.04-1.224.04-1.844 0-.622-.015-1.236-.04-1.844ZM14.733 1.682c1.522 0 3.107 2.28 4.122 6.13a35.166 35.166 0 0 0-4.122 2.008 35.07 35.07 0 0 0-4.121-2.008c1.014-3.849 2.6-6.13 4.121-6.13Zm-12.628 6.6c.427-.613 1.296-.923 2.506-.923.867 0 1.909.16 3.086.481.575.157 1.17.35 1.779.573-.39 1.695-.663 3.57-.803 5.546-.998.81-1.93 1.643-2.78 2.481-3.412-3.565-4.778-6.738-3.788-8.158Zm0 17.687c-.99-1.421.376-4.594 3.786-8.16a38.65 38.65 0 0 0 2.782 2.482c.14 1.98.414 3.857.805 5.554-3.73 1.37-6.5 1.374-7.373.124Zm12.628 6.599c-1.521 0-3.107-2.28-4.121-6.13a35.007 35.007 0 0 0 4.121-2.008 35.058 35.058 0 0 0 4.122 2.008c-1.016 3.85-2.6 6.13-4.122 6.13Zm12.629-6.6c-.872 1.25-3.644 1.248-7.373-.121.391-1.698.664-3.575.804-5.554a38.756 38.756 0 0 0 2.774-2.474 24.617 24.617 0 0 1 2.284 2.735c1.693 2.39 2.243 4.363 1.51 5.415Z"/><path d="M17.7 15.861h-.244v-1.156a1.123 1.123 0 0 0-1.118-1.12h-3.217a1.117 1.117 0 0 0-1.117 1.12v1.156h-.243a1.117 1.117 0 0 0-1.117 1.12v.192a1.124 1.124 0 0 0 1.117 1.12h.243v1.483a1.123 1.123 0 0 0 1.117 1.12h3.217a1.118 1.118 0 0 0 1.117-1.12v-1.484h.245a1.118 1.118 0 0 0 1.117-1.12v-.19a1.123 1.123 0 0 0-1.117-1.12Zm-4.726-1.156a.147.147 0 0 1 .147-.147h3.217a.147.147 0 0 1 .147.147v2.615h-3.511v-2.615Zm-1.215 2.615a.147.147 0 0 1-.147-.147v-.192a.148.148 0 0 1 .147-.148h.243v.488h-.243Zm4.726 2.456a.148.148 0 0 1-.147.147h-3.217a.148.148 0 0 1-.147-.147v-1.484h3.511v1.484Zm1.362-2.603a.147.147 0 0 1-.147.147h-.244v-.487h.244a.146.146 0 0 1 .147.148v.192Z"/></g></svg>