<svg width="130" height="34" fill="none" xmlns="http://www.w3.org/2000/svg"><path d="M88.263 15.7h-3.495v-3.106h3.48V8.875h3.449v3.684h4.146v3.126h-4.09c0 2.066-.051 4.037.022 6.004.035.936.775 1.49 1.799 1.54.518.024 1.041-.041 1.668-.07l.512 2.957c-3.401 1.675-7.253-.698-7.462-4.594-.087-1.63-.026-3.269-.03-4.904V15.7ZM106.626 15.7h-3.502v-3.126h3.49v-3.71h3.417v3.698h4.2v3.136h-4.075c0 2.08-.057 4.076.026 6.066.037.915.752 1.417 1.765 1.462.52.024 1.044-.044 1.657-.074l.526 2.959c-3.199 1.59-7.167-.603-7.41-4.111-.122-1.76-.069-3.532-.093-5.3-.005-.307-.001-.613-.001-1ZM36.057 12.607h3.356v13.6h-3.356v-13.6ZM101.49 12.628v13.57h-3.305v-13.57h3.305ZM37.713 10.122c-1.283-.007-2.247-1.021-2.23-2.346.017-1.324 1.013-2.339 2.273-2.322 1.26.016 2.254 1.058 2.245 2.362-.01 1.304-1.012 2.314-2.288 2.306ZM99.864 10.123c-1.286.012-2.273-.975-2.297-2.293-.025-1.299.967-2.357 2.227-2.376 1.26-.018 2.28 1 2.3 2.305.019 1.316-.958 2.352-2.23 2.364ZM51.32 6.366v7.079c-.24-.14-.393-.227-.545-.317a5.872 5.872 0 0 0-7.487 1.286c-1.539 1.83-1.99 3.965-1.673 6.292.508 3.701 3.661 6.241 7.202 5.704a6.109 6.109 0 0 0 2.64-1.082l.011.88c1.08 0 2.218-.005 3.297-.005V6.366H51.32Zm-.959 16.086c-1.02.632-2.073.861-3.217.436-1.397-.52-2.358-2.192-2.178-3.754.225-1.948 1.262-3.186 2.935-3.388 1.326-.16 2.396.408 3.246 1.399.06.073.125.142.193.207.027.55.009 1.552.01 2.104 0 .157-.012.317-.008.474 0 .052.005 1.611.01 1.664 0 0-.077.292-.99.858ZM77.346 12.45c-1.148.112-2.306.789-3.182 1.307l-.024-1.136h-3.199v13.571h3.374v-.91c0-2.4-.057-5.84-.002-8.24a6.75 6.75 0 0 1 .597-.549c.552-.443 1.228-.831 1.913-.993 1.442-.345 2.82.78 3.123 2.374.093.487.112.994.115 1.493.011 2.262.005 4.525.005 6.814h3.313c0-2.963.159-5.871-.04-8.753-.225-3.208-2.965-5.275-5.993-4.978ZM68.36 16.972c-1.235-4.517-6.227-6.157-9.611-3.168-1.454 1.283-2.113 3-2.264 4.9-.392 4.917 3.02 8.332 7.624 7.723 1.715-.228 3.172-.971 4.272-2.404l-1.944-2.053c-1.318 1.258-2.758 1.983-4.535 1.28-1.218-.484-1.866-1.458-2.08-2.913h.969c2.389 0 5.458-.005 7.848.02l.005-.715c-.025-.893-.051-1.819-.284-2.67Zm-8.291.617c.141-1.335 1.314-2.302 2.69-2.266.598.016 1.167.26 1.594.68.427.42.679.987.706 1.586h-4.99Z" fill="#010E17"/><path d="M36.057 26.208h3.356V12.607h-3.356v13.6ZM37.756 5.454c-1.26-.017-2.256 1-2.273 2.322-.017 1.322.947 2.339 2.23 2.346C38.989 10.13 39.99 9.12 40 7.816c.01-1.303-.98-2.346-2.245-2.362ZM126.38 12.622l-1.137 2.497c-.044.096-.081.195-.122.292l-2.227 5.254c-.177-.366-.305-.619-.421-.875-1.006-2.201-2.004-4.406-3.025-6.6-.109-.235-.341-.572-.53-.581-1.142-.054-2.286-.027-3.523-.027.168.385.276.646.396.903 1.366 2.933 2.638 5.917 4.139 8.78.922 1.758 1.179 2.459 1.179 2.459l-1.423 3.856-1.593 4.37h3.628c2.111-5.277 4.561-11.288 6.695-16.554.5-1.232.989-2.468 1.513-3.776l-3.549.002ZM91.697 8.875h-3.45v3.719h-3.48V15.7h3.496v.917c.005 1.635-.057 3.273.03 4.904.21 3.897 4.06 6.269 7.462 4.593l-.512-2.957c-.626.03-1.15.095-1.668.07-1.024-.05-1.763-.603-1.798-1.54-.074-1.967-.023-3.937-.023-6.004h4.09v-3.125h-4.147V8.875ZM99.792 5.454c-1.258.02-2.25 1.078-2.227 2.376.024 1.32 1.012 2.305 2.297 2.293 1.272-.012 2.249-1.048 2.227-2.364-.017-1.304-1.034-2.324-2.297-2.305ZM110.03 8.865h-3.414v3.71h-3.491V15.7h3.502c0 .387-.004.695 0 1.002.025 1.767-.028 3.54.093 5.3.243 3.508 4.211 5.702 7.41 4.11l-.526-2.958c-.612.03-1.137.098-1.657.074-1.012-.047-1.728-.55-1.765-1.462-.081-1.989-.026-3.987-.026-6.066h4.073v-3.138h-4.199V8.865ZM98.185 26.199h3.305V12.628h-3.305v13.57ZM24.034 17.123c.92-.96 1.727-1.923 2.394-2.864 1.972-2.786 2.51-5.106 1.514-6.536-.995-1.429-3.354-1.72-6.64-.823-.57.156-1.157.345-1.758.563a22.837 22.837 0 0 0-.547-1.767C17.847 2.482 16.258.71 14.52.71c-1.74 0-3.329 1.772-4.477 4.988-.199.557-.38 1.148-.546 1.767a23.1 23.1 0 0 0-1.758-.563c-3.288-.898-5.647-.606-6.641.823-.994 1.429-.458 3.75 1.515 6.535a25.55 25.55 0 0 0 2.394 2.865c-.92.96-1.727 1.924-2.394 2.865-1.973 2.785-2.51 5.106-1.515 6.535.617.886 1.757 1.335 3.316 1.335.959 0 2.075-.17 3.326-.512.57-.155 1.157-.344 1.758-.562.166.619.348 1.21.546 1.767 1.149 3.216 2.739 4.987 4.478 4.987 1.738 0 3.328-1.771 4.476-4.987.2-.557.381-1.148.547-1.767.6.218 1.188.406 1.758.562 1.251.343 2.368.512 3.326.512 1.56 0 2.7-.45 3.316-1.335.996-1.428.458-3.75-1.515-6.535a25.85 25.85 0 0 0-2.395-2.867Zm-2.48-9.284c1.179-.322 2.22-.482 3.087-.482 1.21 0 2.08.31 2.506.923.733 1.051.183 3.026-1.51 5.416a24.545 24.545 0 0 1-2.284 2.735 40.354 40.354 0 0 0-2.772-2.474c-.14-1.977-.413-3.85-.802-5.545a22.232 22.232 0 0 1 1.776-.573Zm-4.057 13.558a43.908 43.908 0 0 1-2.978 1.914A45.204 45.204 0 0 1 9.397 19.8a45.168 45.168 0 0 1-.08-2.677c0-.924.027-1.816.08-2.676a43.715 43.715 0 0 1 5.122-3.507 43.113 43.113 0 0 1 5.122 3.511 45.428 45.428 0 0 1 0 5.345c-.686.546-1.4 1.08-2.144 1.604v-.002Zm2.046-.295a34.34 34.34 0 0 1-.672 4.39 33.276 33.276 0 0 1-3.383-1.63 44.65 44.65 0 0 0 4.055-2.757v-.003Zm-5.993 2.76a33.342 33.342 0 0 1-3.383 1.631 34.313 34.313 0 0 1-.673-4.39c.486.37.983.733 1.491 1.091a43.343 43.343 0 0 0 2.565 1.67v-.001Zm-5.163-4.889a34.549 34.549 0 0 1-2.032-1.85 37.8 37.8 0 0 1 2.032-1.85c-.024.61-.04 1.228-.04 1.85 0 .623.016 1.242.04 1.852v-.002Zm1.107-5.828c.13-1.473.353-2.936.67-4.38a33.47 33.47 0 0 1 3.381 1.624 45.55 45.55 0 0 0-2.56 1.664c-.509.358-1.006.722-1.49 1.092Zm5.998-2.757a33.507 33.507 0 0 1 3.382-1.624c.317 1.445.54 2.908.67 4.381a45.145 45.145 0 0 0-4.051-2.757Zm5.159 4.893a37.394 37.394 0 0 1 2.022 1.844 36.747 36.747 0 0 1-2.022 1.844c.024-.61.04-1.224.04-1.844 0-.622-.015-1.236-.04-1.844ZM14.519 1.682c1.522 0 3.107 2.28 4.121 6.13A35.166 35.166 0 0 0 14.52 9.82a35.062 35.062 0 0 0-4.122-2.008c1.015-3.849 2.6-6.13 4.122-6.13ZM1.89 8.282c.426-.613 1.295-.923 2.506-.923.866 0 1.908.16 3.086.481.575.157 1.17.35 1.778.573-.39 1.695-.662 3.57-.802 5.546-.998.81-1.93 1.643-2.78 2.481C2.267 12.875.901 9.702 1.891 8.282Zm0 17.687c-.99-1.421.375-4.594 3.786-8.16.85.838 1.782 1.671 2.782 2.482.14 1.98.413 3.857.804 5.554-3.728 1.37-6.5 1.374-7.372.124Zm12.628 6.599c-1.521 0-3.107-2.28-4.122-6.13a35.006 35.006 0 0 0 4.122-2.008 35.065 35.065 0 0 0 4.121 2.008c-1.015 3.85-2.6 6.13-4.121 6.13Zm12.628-6.6c-.871 1.25-3.644 1.248-7.372-.121.39-1.698.664-3.575.804-5.554a38.756 38.756 0 0 0 2.774-2.474 24.595 24.595 0 0 1 2.284 2.735c1.693 2.39 2.243 4.363 1.51 5.415Z" fill="#010E17"/><path d="M17.486 15.861h-.245v-1.156a1.123 1.123 0 0 0-1.117-1.12h-3.217a1.118 1.118 0 0 0-1.117 1.12v1.156h-.243a1.116 1.116 0 0 0-1.117 1.12v.192a1.123 1.123 0 0 0 1.117 1.12h.243v1.483a1.123 1.123 0 0 0 1.117 1.12h3.217a1.117 1.117 0 0 0 1.117-1.12v-1.484h.245a1.117 1.117 0 0 0 1.117-1.12v-.19a1.123 1.123 0 0 0-1.117-1.12Zm-4.727-1.156a.146.146 0 0 1 .043-.104.146.146 0 0 1 .105-.043h3.217a.147.147 0 0 1 .147.147v2.615h-3.512v-2.615Zm-1.214 2.615a.147.147 0 0 1-.147-.147v-.192a.148.148 0 0 1 .147-.148h.243v.488h-.243Zm4.726 2.456a.149.149 0 0 1-.147.147h-3.217a.147.147 0 0 1-.148-.147v-1.484h3.512v1.483Zm1.362-2.603a.148.148 0 0 1-.147.147h-.245v-.487h.245a.147.147 0 0 1 .147.148v.192Z" fill="#010E17"/></svg>