<svg width="179" height="48" fill="none" xmlns="http://www.w3.org/2000/svg"><rect width="48" height="48" rx="15" fill="url(#a)"/><g filter="url(#b)"><path d="M36 18.412a1.497 1.497 0 0 0-.242-.784 1.666 1.666 0 0 0-.631-.57 1.773 1.773 0 0 0-.826-.199c-.29.002-.574.073-.824.206L14.054 27.404v-8.032c0-.122.036-.241.102-.347a.727.727 0 0 1 .278-.253l8.692-4.626a.816.816 0 0 1 .75.001l2.057 1.095-9.447 5.028v3.25l15.553-8.278-7.46-3.97c-.693-.356-1.405-.364-2.128-.016L12.088 16.77c-.669.355-1.055.951-1.088 1.69v11.114c.01.588.32 1.084.848 1.36.257.134.547.204.842.203.295 0 .585-.071.841-.206l19.415-10.334v8.025a.654.654 0 0 1-.099.347.726.726 0 0 1-.273.255l-8.695 4.628a.817.817 0 0 1-.751.003l-2.06-1.096 9.446-5.028v-3.25L14.96 32.76l7.479 3.98c.329.173.702.263 1.08.26.38-.003.75-.1 1.076-.28l10.357-5.512c.677-.385 1.049-.994 1.047-1.714V18.412Z" fill="#fff"/></g><path d="M57.29 27.8h3.42c.08.688.438 1.235 1.08 1.641.64.407 1.46.61 2.46.61.922 0 1.676-.2 2.262-.598.586-.406.879-.93.879-1.57 0-.54-.227-.977-.68-1.313-.453-.336-1.2-.613-2.238-.832l-2.203-.468c-3.063-.641-4.594-2.25-4.594-4.829 0-1.593.59-2.87 1.77-3.832 1.179-.968 2.745-1.453 4.698-1.453 1.86 0 3.387.473 4.583 1.418 1.203.945 1.832 2.172 1.886 3.68h-3.328c-.086-.672-.414-1.211-.984-1.617-.57-.407-1.282-.61-2.133-.61-.89 0-1.606.192-2.145.575-.53.382-.796.894-.796 1.535 0 .523.214.945.644 1.265.438.32 1.152.586 2.145.797l2.039.434c1.695.36 2.93.922 3.703 1.687.773.766 1.16 1.805 1.16 3.117 0 1.704-.613 3.047-1.84 4.032-1.219.976-2.89 1.465-5.016 1.465-2.015 0-3.632-.461-4.851-1.383-1.219-.922-1.86-2.172-1.922-3.75Zm26.074 3.188c-1.125 1.196-2.68 1.793-4.664 1.793-1.984 0-3.543-.597-4.676-1.793-1.125-1.195-1.687-2.847-1.687-4.957 0-2.093.566-3.738 1.7-4.933 1.14-1.203 2.694-1.805 4.663-1.805 1.969 0 3.52.602 4.653 1.805 1.14 1.195 1.71 2.84 1.71 4.933 0 2.11-.566 3.762-1.699 4.957Zm-4.664-.996c.906 0 1.61-.344 2.11-1.031.5-.695.75-1.672.75-2.93 0-1.242-.254-2.21-.762-2.906-.5-.695-1.2-1.043-2.098-1.043-.906 0-1.61.348-2.11 1.043-.5.695-.75 1.664-.75 2.906 0 1.258.247 2.235.74 2.93.5.687 1.206 1.031 2.12 1.031ZM87.89 32.5V22.387h-2.086v-2.684h2.086v-1.312c0-1.305.351-2.274 1.054-2.907.711-.64 1.836-.96 3.375-.96.657 0 1.243.042 1.758.128v2.414a9.911 9.911 0 0 0-1.02-.058c-.656 0-1.124.133-1.406.398-.28.258-.422.668-.422 1.23v1.067h2.743v2.684h-2.672V32.5h-3.41Zm8.93-15.996h3.41v3.2h2.684v2.683h-2.684v5.812c0 .563.133.977.399 1.242.273.266.699.399 1.277.399.383 0 .719-.016 1.008-.047v2.602a8.988 8.988 0 0 1-1.711.152c-1.57 0-2.695-.274-3.375-.82-.672-.547-1.008-1.454-1.008-2.72v-6.62h-2.015v-2.684h2.015v-3.2Zm19.384 12.914V32.5H105.14V15.59h3.54v13.828h7.523Zm6.575.715c.789 0 1.449-.223 1.981-.668.531-.445.796-.996.796-1.652v-.95l-2.613.164c-1.453.102-2.179.621-2.179 1.559 0 .477.183.855.55 1.137.375.273.864.41 1.465.41Zm-1.125 2.566c-1.25 0-2.269-.355-3.058-1.066-.782-.711-1.172-1.652-1.172-2.824 0-1.165.429-2.079 1.289-2.743.867-.671 2.105-1.054 3.715-1.148l3.128-.188v-1.054c0-.54-.187-.953-.562-1.242-.375-.297-.914-.446-1.617-.446-1.266 0-2.043.399-2.332 1.196h-3.141c.11-1.196.672-2.141 1.688-2.836 1.023-.703 2.347-1.055 3.972-1.055 1.703 0 3.02.383 3.95 1.148.937.766 1.406 1.844 1.406 3.235V32.5h-3.305v-1.688h-.211c-.336.594-.836 1.06-1.5 1.395-.664.328-1.414.492-2.25.492Zm9.657-.199V19.574h3.305v2.074h.211a3.64 3.64 0 0 1 1.43-1.734c.656-.414 1.453-.621 2.39-.621 1.43 0 2.524.422 3.281 1.266.758.835 1.137 2.03 1.137 3.585V32.5h-3.41v-7.547c0-1.812-.793-2.719-2.379-2.719-.789 0-1.414.258-1.875.774-.453.508-.68 1.187-.68 2.039V32.5h-3.41Zm18.74.2c-1.625 0-2.911-.598-3.856-1.794-.937-1.195-1.406-2.824-1.406-4.886 0-2.055.469-3.676 1.406-4.864.945-1.195 2.231-1.793 3.856-1.793.875 0 1.652.203 2.332.61a3.742 3.742 0 0 1 1.523 1.664h.199V14.64h3.41V32.5h-3.304v-2.027h-.211a3.806 3.806 0 0 1-1.559 1.64c-.695.39-1.492.586-2.39.586Zm3.304-9.446c-.523-.688-1.238-1.031-2.144-1.031-.907 0-1.621.34-2.145 1.02-.515.671-.773 1.6-.773 2.788 0 1.196.258 2.133.773 2.813.516.672 1.231 1.008 2.145 1.008.914 0 1.629-.336 2.144-1.008.524-.68.785-1.614.785-2.801 0-1.18-.261-2.11-.785-2.79Zm6.763 9.246V19.574h3.41V32.5h-3.41Zm1.711-14.73c-.61 0-1.098-.16-1.465-.48-.367-.321-.551-.735-.551-1.243 0-.516.184-.93.551-1.242.367-.32.855-.48 1.465-.48.609 0 1.097.16 1.465.48.367.312.55.726.55 1.242 0 .508-.187.922-.562 1.242-.367.32-.852.48-1.453.48Zm8.86 12.363c.789 0 1.449-.223 1.981-.668.531-.445.796-.996.796-1.652v-.95l-2.613.164c-1.453.102-2.179.621-2.179 1.559 0 .477.183.855.55 1.137.375.273.864.41 1.465.41Zm-1.125 2.566c-1.25 0-2.269-.355-3.058-1.066-.782-.711-1.172-1.652-1.172-2.824 0-1.165.429-2.079 1.289-2.743.867-.671 2.105-1.054 3.715-1.148l3.128-.188v-1.054c0-.54-.187-.953-.562-1.242-.375-.297-.914-.446-1.617-.446-1.266 0-2.043.399-2.332 1.196h-3.141c.11-1.196.672-2.141 1.688-2.836 1.023-.703 2.347-1.055 3.972-1.055 1.703 0 3.02.383 3.95 1.148.937.766 1.406 1.844 1.406 3.235V32.5h-3.305v-1.688h-.211c-.336.594-.836 1.06-1.5 1.395-.664.328-1.414.492-2.25.492Z" fill="#010E17"/><defs><linearGradient id="a" x1="24" y1="0" x2="24" y2="48" gradientUnits="userSpaceOnUse"><stop stop-color="#05C3FF"/><stop offset="1" stop-color="#0075FF"/></linearGradient><filter id="b" x="8" y="11" width="33" height="34" filterUnits="userSpaceOnUse" color-interpolation-filters="sRGB"><feFlood flood-opacity="0" result="BackgroundImageFix"/><feColorMatrix in="SourceAlpha" values="0 0 0 0 0 0 0 0 0 0 0 0 0 0 0 0 0 0 127 0" result="hardAlpha"/><feOffset dx="1" dy="4"/><feGaussianBlur stdDeviation="2"/><feComposite in2="hardAlpha" operator="out"/><feColorMatrix values="0 0 0 0 0.1125 0 0 0 0 0.1125 0 0 0 0 0.1125 0 0 0 0.25 0"/><feBlend in2="BackgroundImageFix" result="effect1_dropShadow_227_96"/><feBlend in="SourceGraphic" in2="effect1_dropShadow_227_96" result="shape"/></filter></defs></svg>