<svg width="179" height="48" viewBox="0 0 179 48" fill="none" xmlns="http://www.w3.org/2000/svg">
<g clip-path="url(#clip0_387_22)">
<g clip-path="url(#clip1_387_22)">
<path d="M8.5 0H39.5C44.2 0 48 3.89744 48 8.71795V39.2821C48 44.1026 44.2 48 39.5 48H8.5C3.8 48 0 44.1026 0 39.2821V8.71795C0 3.89744 3.8 0 8.5 0Z" fill="#001E36"/>
<path d="M11 36.1815V11.4093C11 11.2407 11.054 11.1444 11.18 11.1444C11.4861 11.1444 11.7742 11.1444 12.1883 11.1204C12.6204 11.0963 13.0705 11.0963 13.5566 11.0722C14.0428 11.0481 14.5649 11.0481 15.123 11.0241C15.6812 11 16.2213 11 16.7614 11C18.2378 11 19.4621 11.2407 20.4704 11.7463C21.3706 12.1556 22.1988 12.8296 22.883 13.7204C23.4591 14.4907 23.9092 15.4296 24.1973 16.4648C24.4674 17.4759 24.6114 18.5111 24.6114 19.5944C24.6114 21.6648 24.2513 23.3741 23.5311 24.7222C22.811 26.0704 21.8027 27.0815 20.6324 27.6593C19.4081 28.2611 18.0578 28.4778 16.5814 28.4778C16.1493 28.4778 15.8612 28.4778 15.6812 28.4537C15.5011 28.4296 15.2491 28.4296 14.907 28.4296V36.1574C14.925 36.3259 14.835 36.4704 14.7089 36.4944H11.2161C11.072 36.4944 11 36.3982 11 36.1815ZM14.925 15.7907V23.8796C15.177 23.9037 15.4111 23.9278 15.6272 23.9278H16.5814C17.2836 23.9278 17.9857 23.7833 18.6519 23.4944C19.2281 23.2778 19.7322 22.8204 20.1283 22.2185C20.5064 21.6167 20.6864 20.7981 20.6864 19.7389C20.7044 18.9926 20.5604 18.2463 20.2723 17.5963C19.9662 16.9704 19.5341 16.4889 19.012 16.2241C18.3458 15.863 17.6257 15.7185 16.8875 15.7426C16.4194 15.7426 16.0053 15.7426 15.6632 15.7667C15.3031 15.7426 15.051 15.7667 14.925 15.7907ZM35.8462 22.4111C35.3061 22.0259 34.7299 21.7611 34.1178 21.5926C33.4516 21.4 32.7854 21.2796 32.1013 21.2796C31.7412 21.2556 31.3631 21.3278 31.021 21.4481C30.7869 21.5204 30.5889 21.6889 30.4629 21.9296C30.3728 22.1222 30.3188 22.363 30.3188 22.5796C30.3188 22.7963 30.3908 23.013 30.4989 23.2056C30.6609 23.4704 30.877 23.687 31.111 23.8556C31.5251 24.1444 31.9572 24.4093 32.3893 24.65C33.3616 25.0833 34.2978 25.6852 35.162 26.4074C35.7562 26.913 36.2423 27.587 36.5844 28.4056C36.8725 29.1759 37.0165 30.0185 36.9985 30.8852C37.0165 32.0167 36.7644 33.1481 36.2963 34.087C35.7922 35.05 35.09 35.7963 34.2798 36.2296C33.3976 36.7352 32.3173 37 31.021 37C30.1928 37 29.3826 36.9037 28.5724 36.687C27.9422 36.5426 27.3121 36.2778 26.7359 35.9167C26.6099 35.8204 26.5199 35.6519 26.5379 35.4593V31.2704C26.5379 31.1981 26.5559 31.1019 26.6099 31.0537C26.6639 31.0056 26.7179 31.0296 26.7719 31.0778C27.4741 31.6315 28.2123 32.0167 29.0045 32.2574C29.6887 32.4981 30.4089 32.6185 31.129 32.6185C31.8132 32.6185 32.2993 32.4981 32.6234 32.2815C32.9115 32.113 33.1095 31.7037 33.1095 31.2704C33.1095 30.9333 32.9655 30.6204 32.6774 30.3074C32.3893 29.9944 31.7952 29.6333 30.913 29.1759C29.9947 28.7426 29.1485 28.1648 28.3563 27.4426C27.7982 26.913 27.3301 26.2148 26.988 25.3963C26.6999 24.6259 26.5559 23.7833 26.5739 22.9407C26.5739 21.9056 26.7899 20.9185 27.186 20.0278C27.6362 19.0648 28.3023 18.2944 29.0765 17.813C29.9227 17.2352 30.985 16.9704 32.2633 16.9704C33.0015 16.9704 33.7577 17.0426 34.4959 17.187C35.036 17.2833 35.5581 17.4759 36.0443 17.7407C36.1163 17.7648 36.1883 17.8611 36.2243 17.9574C36.2423 18.0537 36.2603 18.15 36.2603 18.2463V22.1704C36.2603 22.2667 36.2243 22.363 36.1703 22.4111C36.0083 22.4593 35.9182 22.4593 35.8462 22.4111Z" fill="#31A8FF"/>
</g>
<path d="M65.7305 28.4492H59.3672L58.1719 32H54.3984L60.5625 14.7266H64.6406L70.7578 32H66.8438L65.7305 28.4492ZM64.7227 25.4727L62.5664 18.6758L60.3398 25.4727H64.7227ZM83.3906 20.5977C84.4219 21.6992 84.9375 23.3164 84.9375 25.4492C84.9375 27.6992 84.4297 29.4141 83.4141 30.5938C82.4062 31.7734 81.1055 32.3633 79.5117 32.3633C78.4961 32.3633 77.6523 32.1094 76.9805 31.6016C76.6133 31.3203 76.2539 30.9102 75.9023 30.3711V37.0273H72.5977V19.2266H75.7969V21.1133C76.1562 20.5586 76.5391 20.1211 76.9453 19.8008C77.6875 19.2305 78.5703 18.9453 79.5938 18.9453C81.0859 18.9453 82.3516 19.4961 83.3906 20.5977ZM81.4922 25.6133C81.4922 24.6289 81.2656 23.7578 80.8125 23C80.3672 22.2422 79.6406 21.8633 78.6328 21.8633C77.4219 21.8633 76.5898 22.4375 76.1367 23.5859C75.9023 24.1953 75.7852 24.9688 75.7852 25.9062C75.7852 27.3906 76.1797 28.4336 76.9688 29.0352C77.4375 29.3867 77.9922 29.5625 78.6328 29.5625C79.5625 29.5625 80.2695 29.2031 80.7539 28.4844C81.2461 27.7656 81.4922 26.8086 81.4922 25.6133ZM98.0625 20.5977C99.0938 21.6992 99.6094 23.3164 99.6094 25.4492C99.6094 27.6992 99.1016 29.4141 98.0859 30.5938C97.0781 31.7734 95.7773 32.3633 94.1836 32.3633C93.168 32.3633 92.3242 32.1094 91.6523 31.6016C91.2852 31.3203 90.9258 30.9102 90.5742 30.3711V37.0273H87.2695V19.2266H90.4688V21.1133C90.8281 20.5586 91.2109 20.1211 91.6172 19.8008C92.3594 19.2305 93.2422 18.9453 94.2656 18.9453C95.7578 18.9453 97.0234 19.4961 98.0625 20.5977ZM96.1641 25.6133C96.1641 24.6289 95.9375 23.7578 95.4844 23C95.0391 22.2422 94.3125 21.8633 93.3047 21.8633C92.0938 21.8633 91.2617 22.4375 90.8086 23.5859C90.5742 24.1953 90.457 24.9688 90.457 25.9062C90.457 27.3906 90.8516 28.4336 91.6406 29.0352C92.1094 29.3867 92.6641 29.5625 93.3047 29.5625C94.2344 29.5625 94.9414 29.2031 95.4258 28.4844C95.918 27.7656 96.1641 26.8086 96.1641 25.6133ZM102.105 14.7266H105.445V32H102.105V14.7266ZM119.648 28.25C119.562 29.0078 119.168 29.7773 118.465 30.5586C117.371 31.8008 115.84 32.4219 113.871 32.4219C112.246 32.4219 110.812 31.8984 109.57 30.8516C108.328 29.8047 107.707 28.1016 107.707 25.7422C107.707 23.5312 108.266 21.8359 109.383 20.6562C110.508 19.4766 111.965 18.8867 113.754 18.8867C114.816 18.8867 115.773 19.0859 116.625 19.4844C117.477 19.8828 118.18 20.5117 118.734 21.3711C119.234 22.1289 119.559 23.0078 119.707 24.0078C119.793 24.5938 119.828 25.4375 119.812 26.5391H111.07C111.117 27.8203 111.52 28.7188 112.277 29.2344C112.738 29.5547 113.293 29.7148 113.941 29.7148C114.629 29.7148 115.188 29.5195 115.617 29.1289C115.852 28.918 116.059 28.625 116.238 28.25H119.648ZM116.344 24.3359C116.289 23.4531 116.02 22.7852 115.535 22.332C115.059 21.8711 114.465 21.6406 113.754 21.6406C112.98 21.6406 112.379 21.8828 111.949 22.3672C111.527 22.8516 111.262 23.5078 111.152 24.3359H116.344Z" fill="black"/>
</g>
<defs>
<clipPath id="clip0_387_22">
<rect width="179" height="48" fill="white"/>
</clipPath>
<clipPath id="clip1_387_22">
<rect width="48" height="48" fill="white"/>
</clipPath>
</defs>
</svg>
