<svg width="126" height="16" fill="none" xmlns="http://www.w3.org/2000/svg"><path d="M17.698 15.685V.2h-4.535L8.85 13.805 4.535.199H0v15.486h2.434V1.55l4.535 14.136h3.76L15.266 1.55v14.136h2.433ZM19.564 15.685h2.743l1.483-3.76h7.654l1.482 3.76h2.743L29.3.2h-3.363l-6.372 15.486Zm5.088-5.973 2.965-7.5 2.964 7.5h-5.929ZM37.527 15.685h5.862c4.912 0 7.743-3.252 7.743-7.632C51.132 3.473 48.39.2 43.39.2h-5.862v15.486ZM39.96 2.412h3.43c3.473 0 5.309 2.389 5.309 5.641 0 2.942-1.88 5.42-5.31 5.42H39.96V2.412ZM77.52.2v15.486h11.724v-2.323h-9.291V.199h-2.434ZM91.713 15.685h2.434V.2h-2.434v15.486ZM99.764 1.97l7.212 13.715h4.225V.2h-2.433v13.739L101.556.199H97.33v15.486h2.434V1.97ZM114.398.2v15.486h11.504v-2.323h-9.071V8.827h8.186V6.504h-8.186V2.522h8.849V.2h-11.282Z" fill="#4F4F4F"/><path fill-rule="evenodd" clip-rule="evenodd" d="M55.465 13.351v2.396h17.47v-2.396h-17.47Zm17.407-3.956H55.465V6.999h17.407v2.396Zm.063-8.727h-17.47v2.395h17.47V.668Z" fill="#4F4F4F"/></svg>