<svg width="85" height="29" fill="none" xmlns="http://www.w3.org/2000/svg"><mask id="a" style="mask-type:luminance" maskUnits="userSpaceOnUse" x="0" y="0" width="85" height="29"><path d="M84.608.429H.822v27.928h83.785V.43Z" fill="#fff"/></mask><g mask="url(#a)"><path d="M73.849 28.357c6.231 0 8.146-3.678 8.146-6.156 0-4.73-6.494-6.119-6.494-9.047 0-.788.525-1.726 1.84-1.726 1.238 0 1.8.825 2.101 2.402.15.826.376 1.502 1.802 1.502 1.877 0 2.966-1.127 2.966-2.44 0-1.915-2.403-4.055-6.457-4.055-4.617 0-7.77 2.74-7.77 6.194 0 4.993 6.118 5.969 6.118 8.672 0 .713-.45 1.801-1.99 1.801-1.538 0-2.327-1.088-2.74-2.74-.187-.788-.45-1.389-1.614-1.389-1.764 0-2.853 1.239-2.853 2.703 0 1.952 1.99 4.28 6.945 4.28Zm-30.444 0c3.154 0 4.73-1.276 5.856-2.44.376-.375.976-1.05 1.502-1.05.3 0 .6.187 1.614 1.2 1.276 1.277 3.303 2.29 6.381 2.29 5.857 0 7.62-3.716 7.62-6.156 0-4.692-5.968-6.156-5.968-9.01 0-.787.526-1.764 1.802-1.764s1.952.977 2.215 2.966c.112.788.3 1.276 1.576 1.276 1.915 0 3.266-1.05 3.266-2.59 0-2.102-2.477-4.242-6.607-4.242-4.692 0-7.77 2.74-7.77 6.194 0 4.955 5.593 5.969 5.593 8.634 0 .751-.488 1.84-1.952 1.84-3.378 0-1.539-5.932-5.218-5.932-3.078 0-4.279 4.017-8.108 4.017-1.802 0-3.04-1.014-3.19-2.402-.076-.639.187-.976.713-.939.3.038.6.038.9.038 5.556 0 10.361-3.379 10.361-7.32 0-2.665-2.215-4.13-5.78-4.13-7.358 0-12.35 6.682-12.35 12.2 0 4.017 2.702 7.32 7.544 7.32Zm-.263-10.548c-.788 0-1.013-.188-1.013-.6 0-1.127 1.614-4.918 4.43-4.918 1.013 0 1.651.45 1.651 1.314 0 1.764-2.365 4.204-5.068 4.204ZM6.655 28.357c5.518 0 7.583-4.955 11.262-12.65l.788-1.652c1.239-2.627 1.84-4.091 2.966-4.091.6 0 .975.413.975 1.238 0 .826-.375 1.84-1.013 3.304l-.826 1.877c-1.539 3.528-2.102 4.767-2.102 6.944 0 2.665 2.065 5.03 5.443 5.03 5.255 0 7.283-5.368 9.31-10.172l.6-1.427C37.55 8.425 42.43 6.135 47.572 6.135c2.553 0 4.092.563 4.692.563.639 0 .826-.676.826-1.352C53.09 3.582 51.74.43 46.22.43c-7.882 0-11.674 5.78-15.578 14.678l-.675 1.538c-1.09 2.44-1.615 3.266-2.553 3.266-.6 0-1.089-.338-1.089-1.2 0-.526.15-.902.976-2.741l.526-1.164c1.426-3.153 1.952-4.955 1.952-6.57 0-3.115-1.99-5.03-5.406-5.03-4.617 0-6.344 3.492-8.22 7.433l-1.577 3.304c-1.39 2.928-3.341 7.545-11.937 8.108-1.127.075-1.615.45-1.615 1.614 0 2.44 1.84 4.692 5.631 4.692Z" fill="#fff"/></g></svg>