<svg width="84" height="29" fill="none" xmlns="http://www.w3.org/2000/svg"><path d="M73.635 28.357c6.23 0 8.145-3.678 8.145-6.156 0-4.73-6.494-6.119-6.494-9.047 0-.788.526-1.727 1.84-1.727 1.239 0 1.801.826 2.102 2.403.15.826.375 1.502 1.802 1.502 1.877 0 2.965-1.127 2.965-2.44 0-1.915-2.402-4.055-6.456-4.055-4.618 0-7.77 2.74-7.77 6.194 0 4.993 6.118 5.969 6.118 8.672 0 .713-.45 1.801-1.99 1.801-1.539 0-2.327-1.088-2.74-2.74-.188-.788-.45-1.389-1.614-1.389-1.765 0-2.853 1.239-2.853 2.703 0 1.952 1.99 4.28 6.945 4.28Zm-30.444 0c3.153 0 4.73-1.276 5.856-2.44.375-.375.976-1.05 1.501-1.05.3 0 .601.187 1.615 1.2 1.276 1.277 3.303 2.29 6.381 2.29 5.856 0 7.62-3.716 7.62-6.156 0-4.692-5.968-6.156-5.968-9.01 0-.788.525-1.764 1.802-1.764 1.276 0 1.952.976 2.214 2.966.113.788.3 1.276 1.577 1.276 1.915 0 3.266-1.05 3.266-2.59 0-2.102-2.478-4.242-6.607-4.242-4.692 0-7.77 2.74-7.77 6.194 0 4.955 5.593 5.969 5.593 8.634 0 .75-.488 1.84-1.952 1.84-3.379 0-1.54-5.932-5.218-5.932-3.078 0-4.28 4.017-8.108 4.017-1.802 0-3.04-1.014-3.191-2.403-.075-.638.188-.976.713-.938.3.038.6.038.901.038 5.556 0 10.36-3.379 10.36-7.32 0-2.666-2.214-4.13-5.78-4.13-7.358 0-12.35 6.682-12.35 12.2 0 4.017 2.702 7.32 7.545 7.32Zm-.263-10.548c-.788 0-1.013-.188-1.013-.6 0-1.127 1.614-4.918 4.43-4.918 1.013 0 1.65.45 1.65 1.314 0 1.764-2.364 4.204-5.067 4.204ZM6.441 28.357c5.518 0 7.583-4.955 11.261-12.65l.789-1.652c1.238-2.628 1.839-4.091 2.965-4.091.6 0 .976.412.976 1.238 0 .826-.375 1.84-1.013 3.304l-.826 1.876c-1.54 3.53-2.102 4.768-2.102 6.945 0 2.665 2.064 5.03 5.443 5.03 5.255 0 7.282-5.368 9.31-10.173l.6-1.426c3.491-8.334 8.371-10.623 13.514-10.623 2.552 0 4.091.563 4.692.563.638 0 .826-.676.826-1.352 0-1.764-1.351-4.917-6.87-4.917-7.883 0-11.674 5.78-15.578 14.677l-.676 1.54c-1.088 2.44-1.614 3.265-2.552 3.265-.601 0-1.089-.338-1.089-1.201 0-.526.15-.901.976-2.74l.526-1.164c1.426-3.153 1.952-4.955 1.952-6.57 0-3.115-1.99-5.03-5.406-5.03-4.617 0-6.344 3.492-8.22 7.433l-1.578 3.304c-1.389 2.928-3.34 7.545-11.937 8.108-1.126.075-1.614.45-1.614 1.614 0 2.44 1.84 4.692 5.63 4.692Z" fill="#010E17"/></svg>