<svg width="67" height="29" fill="none" xmlns="http://www.w3.org/2000/svg"><path d="M4.27 22.246H.05c-.056-.081-.116-.127-.114-.172.032-3.24-.064-6.49.146-9.72.222-3.407 2.706-5.83 6.195-6.388.928-.147 1.87-.186 2.882-.285v4.481H8.14c-2.905.041-3.848.986-3.867 3.914-.014 2.383 0 4.767 0 7.148l-.003 1.022Z" fill="#fff"/><path d="M50.639 5.747c.103.355.155.573.23.785 1.794 5.138 3.588 10.275 5.383 15.41.612 1.753-.06 2.703-1.925 2.758-.445.012-.891 0-1.334 0v3.557c1.273-.059 2.492-.087 3.707-.173 1.392-.103 2.31-.927 2.93-2.114.29-.56.54-1.139.747-1.734 1.393-4.092 2.775-8.19 4.147-12.29.69-2.03 1.378-4.059 2.088-6.18-1.13 0-2.155-.016-3.18 0-.914.017-1.497.486-1.747 1.37-.327 1.158-.663 2.312-.997 3.469l-1.953 6.745c-.134-.438-.213-.681-.284-.927a1129.79 1129.79 0 0 0-2.902-9.987c-.08-.265-.37-.655-.578-.663-1.399-.06-2.803-.026-4.332-.026Zm-9.223 5.018c0-1.604-.748-3.15-1.91-4.014-2.424-1.804-7.253-1.883-9.712-.108-1.551 1.118-2.168 2.71-1.994 4.589.159 1.689 1.179 2.766 2.681 3.393.902.364 1.822.68 2.758.944 1.125.331 2.281.559 3.395.919.575.186 1.099.562 1.034 1.308-.057.705-.557 1.025-1.153 1.242-2.21.809-3.997.028-5.026-2.183h-4.015c-.222 2.342.974 4.274 3.157 5.113 1.79.69 3.65.69 5.515.517 1.418-.124 2.781-.443 3.946-1.315 1.574-1.179 2.09-2.83 1.94-4.71-.142-1.781-1.24-2.852-2.844-3.429-.995-.357-2.024-.613-3.037-.92-1.122-.345-2.264-.633-3.348-1.069-.328-.13-.69-.689-.67-1.034.018-.344.396-.839.742-1.015 1.422-.715 3.235-.244 4.295.945.308.344.753.732 1.171.779 1.019.119 2.053.043 3.075.043v.005Zm2.831-9.81v21.284h4.265c.021-.297.052-.548.052-.8V3.374a5.048 5.048 0 0 0-.053-.772c-.137-.862-.788-1.564-1.641-1.632-.853-.07-1.708-.021-2.623-.021v.005ZM4.267 22.25v-1.02c0-2.382-.01-4.765 0-7.149.018-2.93.961-3.872 3.867-3.913h1.018V5.688c-1.012.098-1.954.138-2.881.284C2.78 6.531.298 8.954.075 12.361c-.21 3.23-.114 6.48-.146 9.72 0 .046.058.092.114.172l4.223-.002Z" fill="#fff"/><path d="M50.64 5.747c1.528 0 2.929-.03 4.331.03.207.008.499.397.578.663.984 3.322 1.939 6.653 2.9 9.983.07.246.15.49.284.927.69-2.37 1.32-4.557 1.953-6.745.334-1.156.67-2.311.998-3.47.25-.883.832-1.352 1.746-1.37 1.033-.018 2.05 0 3.18 0-.716 2.122-1.404 4.15-2.088 6.18-1.379 4.099-2.76 8.195-4.146 12.291a12.947 12.947 0 0 1-.748 1.734c-.617 1.187-1.535 2.011-2.93 2.114-1.206.09-2.433.118-3.707.173v-3.554c.443 0 .89.01 1.334 0 1.865-.053 2.537-1.003 1.925-2.757a7279.946 7279.946 0 0 0-5.383-15.41c-.073-.22-.125-.445-.228-.79ZM41.416 10.76c-1.022 0-2.056.076-3.067-.036-.42-.046-.862-.434-1.172-.779-1.06-1.189-2.873-1.66-4.295-.944-.344.172-.725.658-.742 1.015-.018.357.344.896.67 1.034 1.084.436 2.226.727 3.348 1.068 1.014.307 2.042.564 3.037.92 1.604.578 2.702 1.648 2.845 3.43.15 1.88-.367 3.531-1.94 4.71-1.165.872-2.529 1.19-3.947 1.315-1.871.172-3.733.162-5.514-.517-2.184-.84-3.38-2.771-3.158-5.113h4.02c1.035 2.21 2.817 2.991 5.026 2.183.596-.217 1.096-.538 1.153-1.243.062-.746-.462-1.121-1.034-1.308-1.113-.36-2.27-.587-3.395-.918a26.957 26.957 0 0 1-2.757-.944c-1.503-.628-2.523-1.705-2.682-3.394-.172-1.878.445-3.47 1.994-4.589 2.46-1.775 7.288-1.695 9.713.109 1.15.851 1.897 2.397 1.897 4.001ZM44.247.95c.915 0 1.775-.054 2.623.015.848.069 1.504.774 1.64 1.632.038.256.056.514.054.772v18.066c0 .251-.031.503-.052.8h-4.265V.95ZM25.732 15.105c0-.862.041-1.665 0-2.456-.276-4.567-2.93-7.135-7.501-7.264-3.868-.108-6.59 1.923-7.32 5.727a16.678 16.678 0 0 0-.153 4.777c.29 2.867 1.617 5.211 4.48 6.183 2.967 1.005 5.848.707 8.32-1.43 1.033-.895 1.66-2.056 1.952-3.471-.99 0-1.877.022-2.758 0a2.32 2.32 0 0 0-1.968.836c-.873 1-2.738 1.26-3.984.643-1.167-.58-1.88-2.068-1.65-3.538l10.582-.007Zm-10.67-2.823c-.049-1.136.308-2.09 1.232-2.735 1.102-.77 2.331-.786 3.503-.188 1.172.598 1.413 1.696 1.492 2.93l-6.228-.007Z" fill="#fff"/></svg>