<svg width="67" height="29" fill="none" xmlns="http://www.w3.org/2000/svg"><path d="M4.055 22.246h-4.22c-.056-.081-.116-.128-.114-.172.033-3.24-.064-6.49.146-9.72.223-3.407 2.706-5.83 6.196-6.389.927-.146 1.87-.185 2.88-.284v4.48H7.927c-2.906.042-3.849.987-3.868 3.915-.013 2.383 0 4.766 0 7.148l-.003 1.022Z" fill="#010E17"/><path d="M50.424 5.747c.104.355.155.573.23.785 1.794 5.138 3.588 10.275 5.383 15.41.612 1.753-.06 2.703-1.925 2.758-.445.012-.89 0-1.334 0v3.556c1.274-.058 2.492-.086 3.707-.172 1.392-.103 2.311-.927 2.93-2.114a12.91 12.91 0 0 0 .748-1.734 2472.66 2472.66 0 0 0 4.146-12.29c.69-2.03 1.379-4.059 2.089-6.18-1.13 0-2.156-.016-3.182 0-.913.017-1.496.486-1.745 1.37-.328 1.158-.664 2.312-.998 3.468L58.52 17.35c-.134-.438-.213-.681-.284-.928-.955-3.334-1.918-6.665-2.902-9.986-.08-.266-.37-.655-.578-.664-1.399-.06-2.803-.025-4.332-.025Zm-9.223 5.018c0-1.604-.748-3.15-1.91-4.014-2.424-1.804-7.253-1.883-9.712-.108-1.551 1.118-2.168 2.71-1.994 4.589.159 1.689 1.179 2.766 2.681 3.393.902.364 1.822.68 2.758.944 1.125.331 2.282.559 3.395.919.575.186 1.1.562 1.034 1.308-.057.705-.557 1.025-1.153 1.242-2.21.809-3.997.028-5.025-2.183h-4.016c-.222 2.342.974 4.274 3.157 5.113 1.79.69 3.65.69 5.515.517 1.418-.124 2.782-.443 3.947-1.315 1.573-1.179 2.09-2.83 1.94-4.71-.143-1.782-1.24-2.852-2.845-3.429-.995-.357-2.023-.613-3.037-.92-1.122-.345-2.264-.633-3.348-1.069-.328-.13-.69-.689-.67-1.034.018-.344.396-.839.742-1.015 1.422-.715 3.235-.245 4.295.945.308.344.753.732 1.172.779 1.018.118 2.052.043 3.074.043v.005Zm2.831-9.81v21.284h4.266c.02-.297.051-.548.051-.8V3.373a5.048 5.048 0 0 0-.053-.771c-.136-.862-.788-1.564-1.64-1.632-.854-.07-1.709-.021-2.624-.021v.005ZM4.052 22.25v-1.02c0-2.382-.01-4.766 0-7.149.018-2.93.961-3.872 3.867-3.914h1.018v-4.48c-1.012.098-1.954.138-2.881.284-3.49.559-5.973 2.982-6.196 6.389-.21 3.23-.113 6.48-.146 9.72 0 .046.059.092.114.171l4.223-.001Z" fill="#010E17"/><path d="M50.424 5.747c1.529 0 2.93-.03 4.333.029.207.008.498.398.577.663.984 3.323 1.939 6.654 2.9 9.983.07.247.15.49.285.928.689-2.37 1.32-4.557 1.952-6.746.335-1.156.67-2.31.998-3.468.25-.885.832-1.353 1.746-1.37 1.034-.02 2.05 0 3.18 0-.716 2.12-1.404 4.15-2.088 6.18a7710.96 7710.96 0 0 1-4.146 12.29 12.973 12.973 0 0 1-.748 1.734c-.617 1.187-1.535 2.01-2.93 2.114-1.206.09-2.433.117-3.706.172v-3.553c.442 0 .889.01 1.333 0 1.865-.053 2.537-1.003 1.925-2.757a7214.327 7214.327 0 0 0-5.383-15.41c-.073-.22-.124-.445-.228-.79ZM41.201 10.76c-1.022 0-2.056.076-3.067-.036-.419-.046-.862-.434-1.172-.779-1.06-1.189-2.873-1.66-4.295-.944-.344.172-.725.658-.742 1.015-.018.357.344.896.67 1.034 1.084.436 2.227.727 3.349 1.068 1.013.307 2.041.564 3.036.92 1.604.578 2.702 1.648 2.845 3.43.15 1.88-.367 3.531-1.94 4.71-1.165.872-2.528 1.19-3.947 1.315-1.871.172-3.732.162-5.514-.517-2.184-.84-3.38-2.771-3.157-5.113h4.02c1.034 2.21 2.816 2.991 5.025 2.183.596-.217 1.096-.538 1.153-1.243.062-.746-.462-1.121-1.034-1.308-1.113-.36-2.27-.587-3.395-.918a26.957 26.957 0 0 1-2.757-.944c-1.503-.628-2.523-1.705-2.682-3.394-.172-1.878.445-3.47 1.994-4.589 2.46-1.775 7.288-1.695 9.713.109 1.15.851 1.897 2.397 1.897 4.001ZM44.032.95c.915 0 1.775-.054 2.623.015.848.069 1.505.774 1.64 1.632.038.255.056.514.054.772v18.066c0 .251-.031.503-.051.8h-4.266V.948ZM25.517 15.104c0-.861.042-1.664 0-2.455-.275-4.567-2.93-7.135-7.501-7.264-3.867-.109-6.59 1.923-7.32 5.727a16.68 16.68 0 0 0-.153 4.777c.29 2.867 1.617 5.21 4.481 6.183 2.966 1.005 5.847.706 8.319-1.43 1.033-.895 1.66-2.056 1.952-3.471-.99 0-1.877.022-2.757 0a2.32 2.32 0 0 0-1.968.836c-.874.999-2.739 1.26-3.985.642-1.166-.579-1.88-2.068-1.649-3.538l10.581-.007Zm-10.67-2.822c-.049-1.136.308-2.09 1.232-2.735 1.103-.77 2.331-.786 3.503-.188 1.172.598 1.413 1.696 1.492 2.93l-6.228-.007Z" fill="#010E17"/></svg>