<svg width="131" height="27" fill="none" xmlns="http://www.w3.org/2000/svg"><path d="m12.443.194.158 6.582h-.573a6.832 6.832 0 0 0-1.995-3.98 4.911 4.911 0 0 0-3.432-1.513 3.132 3.132 0 0 0-2.26.83 2.494 2.494 0 0 0-.831 1.83c-.008.406.092.807.29 1.163.348.514.791.957 1.305 1.304a28.856 28.856 0 0 0 3 1.72 13.501 13.501 0 0 1 4.488 3.217 5.592 5.592 0 0 1 1.147 3.465 5.713 5.713 0 0 1-1.854 4.263 6.507 6.507 0 0 1-4.703 1.787c-.56 0-1.117-.064-1.662-.191-.687-.181-1.357-.42-2.003-.715a2.926 2.926 0 0 0-1.097-.25 1.34 1.34 0 0 0-.773.292c-.297.23-.524.537-.656.889H.477v-7.48h.515a8.667 8.667 0 0 0 2.368 4.796 5.435 5.435 0 0 0 3.781 1.662 3.465 3.465 0 0 0 2.494-.89 2.759 2.759 0 0 0 .573-3.423 4.258 4.258 0 0 0-1.08-1.247 16.244 16.244 0 0 0-2.568-1.537 22.001 22.001 0 0 1-3.715-2.26A6.848 6.848 0 0 1 1.1 8.404a5.337 5.337 0 0 1-.607-2.493A5.471 5.471 0 0 1 2.155 1.89 5.694 5.694 0 0 1 6.31.227a6.873 6.873 0 0 1 1.795.2 8.745 8.745 0 0 1 1.662.648c.406.242.855.403 1.322.474a.73.73 0 0 0 .573-.233 2.75 2.75 0 0 0 .39-1.122h.391Zm9.25 18.192c-1.596 1.468-3.025 2.202-4.288 2.202a2.493 2.493 0 0 1-1.862-.765 2.647 2.647 0 0 1-.74-1.911 3.816 3.816 0 0 1 1.289-2.8c.858-.832 2.725-1.94 5.6-3.325v-1.371a6.898 6.898 0 0 0-.157-1.945 1.544 1.544 0 0 0-.607-.698 1.77 1.77 0 0 0-1.005-.299 2.495 2.495 0 0 0-1.496.424.747.747 0 0 0-.366.615c.04.289.179.556.39.756.316.326.504.753.533 1.205a1.659 1.659 0 0 1-.507 1.213 1.819 1.819 0 0 1-1.338.5 2.078 2.078 0 0 1-1.471-.558 1.72 1.72 0 0 1-.59-1.296c.025-.746.32-1.458.83-2.003a4.986 4.986 0 0 1 2.17-1.454 8.737 8.737 0 0 1 2.966-.466 4.753 4.753 0 0 1 2.942.831 3.83 3.83 0 0 1 1.405 1.787c.161.91.217 1.836.166 2.76v5.284c-.018.392.004.785.066 1.172a.707.707 0 0 0 .208.358.49.49 0 0 0 .324.116c.244 0 .49-.18.74-.54l.415.349a5.217 5.217 0 0 1-1.445 1.562 3.043 3.043 0 0 1-1.662.49 2.576 2.576 0 0 1-1.746-.548 2.493 2.493 0 0 1-.764-1.645Zm0-1.064v-4.563a8.312 8.312 0 0 0-2.493 2.21 2.769 2.769 0 0 0-.549 1.588c-.002.439.164.862.465 1.18a1.24 1.24 0 0 0 .981.39 2.643 2.643 0 0 0 1.596-.805ZM33.119 8.18v9.474a3.25 3.25 0 0 0 .283 1.72 1.962 1.962 0 0 0 1.662.499v.523h-7.72v-.523c.428.022.856-.049 1.255-.208.23-.115.41-.31.506-.548.122-.475.17-.965.142-1.454V8.205h-1.903V6.776h1.903V5.089a4.612 4.612 0 0 1 1.462-3.499A5.56 5.56 0 0 1 34.7.194a4.03 4.03 0 0 1 2.55.673 1.915 1.915 0 0 1 .831 1.488 1.504 1.504 0 0 1-.515 1.138 1.937 1.937 0 0 1-1.371.482 1.661 1.661 0 0 1-1.155-.39 1.17 1.17 0 0 1-.424-.873c.014-.182.041-.362.083-.54.037-.152.056-.309.058-.465a.566.566 0 0 0-.166-.449.749.749 0 0 0-.548-.216.832.832 0 0 0-.682.349c-.21.334-.306.728-.274 1.122V6.8h1.928v1.43l-1.895-.05ZM46.59 13.06h-7.172a7.23 7.23 0 0 0 1.388 4.28 2.885 2.885 0 0 0 2.319 1.204 2.569 2.569 0 0 0 1.546-.44 6.093 6.093 0 0 0 1.446-1.72l.473.324a8.2 8.2 0 0 1-2.352 3.2 5.272 5.272 0 0 1-5.903.07 5.279 5.279 0 0 1-1.476-1.459 8.475 8.475 0 0 1-1.205-4.662 7.936 7.936 0 0 1 1.77-5.426 5.359 5.359 0 0 1 4.155-2.02 4.424 4.424 0 0 1 3.449 1.662 7.962 7.962 0 0 1 1.562 4.987Zm-3.44-.973a13.981 13.981 0 0 0-.241-3.183 2.658 2.658 0 0 0-.732-1.321 1.13 1.13 0 0 0-.78-.266 1.364 1.364 0 0 0-1.19.74 6.583 6.583 0 0 0-.83 3.557v.507l3.773-.034Zm8.859-10.288v4.986h3.1v1.438h-3.1v8.402c-.012.51.035 1.02.14 1.52.064.22.195.415.375.557.131.103.29.164.457.175.604 0 1.177-.48 1.72-1.438l.416.324c-.754 1.862-1.978 2.792-3.674 2.792a3.324 3.324 0 0 1-3.199-2.326 14.278 14.278 0 0 1-.15-2.676v-7.33h-1.703v-.507a18.277 18.277 0 0 0 3-2.726 16.609 16.609 0 0 0 2.16-3.19h.458Zm8.941 19.114L56.73 10.856a13.234 13.234 0 0 0-1.405-2.784 2.385 2.385 0 0 0-1.096-.73V6.8h6.947v.54a1.571 1.571 0 0 0-.964.274.77.77 0 0 0-.283.599c.116.76.351 1.498.698 2.185l2.236 5.327 1.52-4.155c.429-.972.709-2.003.832-3.058a1.122 1.122 0 0 0-.341-.831 1.869 1.869 0 0 0-1.213-.35v-.54h4.37v.54a1.613 1.613 0 0 0-1.046.516 13.073 13.073 0 0 0-1.355 3.025l-3.731 10.072a22.581 22.581 0 0 1-2.094 4.662 2.958 2.958 0 0 1-2.419 1.222 2.607 2.607 0 0 1-1.911-.69 2.225 2.225 0 0 1-.723-1.662 2.011 2.011 0 0 1 .499-1.396 1.581 1.581 0 0 1 1.221-.557 1.455 1.455 0 0 1 1.122.465c.317.41.474.921.44 1.438-.017.245.026.49.125.715a.367.367 0 0 0 .324.158 1.024 1.024 0 0 0 .715-.424 9.201 9.201 0 0 0 1.313-2.793l.44-1.171ZM97.175.643v.54a1.746 1.746 0 0 0-.898.308 2.228 2.228 0 0 0-.64.83c-.055.117-.349.87-.88 2.261L88.815 20.88h-.549L83.571 8.146l-5.169 12.698h-.49L71.646 4.748a17.622 17.622 0 0 0-1.33-2.942 1.66 1.66 0 0 0-1.271-.598V.643h8.218v.54a2.244 2.244 0 0 0-1.32.316.896.896 0 0 0-.333.706c.118.81.347 1.598.681 2.344l3.715 9.582 2.975-7.48-.781-2.094a16.023 16.023 0 0 0-.964-2.302 2.21 2.21 0 0 0-.831-.83 2.857 2.857 0 0 0-1.338-.25V.643h9.183v.54a4.878 4.878 0 0 0-1.388.158.93.93 0 0 0-.64.914c.139.705.35 1.392.631 2.053l3.524 9.332 3.092-8.46c.23-.587.43-1.186.598-1.795.07-.291.106-.59.108-.889a1.18 1.18 0 0 0-.39-.939c-.447-.28-.97-.41-1.497-.374v-.54h4.887Zm4.396 6.133V17.58a3.321 3.321 0 0 0 .324 1.845 1.662 1.662 0 0 0 1.255.457v.524h-7.056v-.532a1.661 1.661 0 0 0 1.289-.524c.254-.556.351-1.17.282-1.778V9.618a3.324 3.324 0 0 0-.324-1.845 1.663 1.663 0 0 0-1.246-.457v-.54h5.476ZM99.61.178a2.037 2.037 0 0 1 1.537.665 2.23 2.23 0 0 1 .632 1.595 2.195 2.195 0 0 1-.64 1.587 2.056 2.056 0 0 1-1.53.657 2.035 2.035 0 0 1-1.52-.657 2.212 2.212 0 0 1-.632-1.587A2.233 2.233 0 0 1 98.09.843a2.017 2.017 0 0 1 1.52-.665Zm8.742 6.598v1.762a7.764 7.764 0 0 1 1.928-1.662 4 4 0 0 1 1.986-.515 3.081 3.081 0 0 1 2.111.73 3.543 3.543 0 0 1 1.122 1.829c.191 1.052.266 2.123.224 3.191v5.302a4.195 4.195 0 0 0 .275 1.961 1.567 1.567 0 0 0 1.138.49v.524h-6.648v-.515a1.368 1.368 0 0 0 1.064-.64 4.35 4.35 0 0 0 .224-1.803v-6.034a10.287 10.287 0 0 0-.125-2.11 1.295 1.295 0 0 0-.423-.673 1.04 1.04 0 0 0-.665-.241c-.804 0-1.549.598-2.236 1.795v7.296a4.222 4.222 0 0 0 .274 1.936 1.383 1.383 0 0 0 1.014.507v.524h-6.648v-.557a1.596 1.596 0 0 0 1.172-.557 4.243 4.243 0 0 0 .241-1.895V9.734a4.061 4.061 0 0 0-.274-1.92 1.663 1.663 0 0 0-1.139-.498v-.54h5.385Zm17.568.158h4.405v1.604h-2.494c.385.377.705.815.948 1.296a4.385 4.385 0 0 1-.441 4.155 5.177 5.177 0 0 1-2.11 1.662 5.871 5.871 0 0 1-2.369.607l-1.662-.075a1.431 1.431 0 0 0-1.055.432 1.395 1.395 0 0 0-.424 1.03 1.094 1.094 0 0 0 .382.832c.366.256.81.373 1.255.332h2.418c1.956 0 3.302.225 4.039.673a3.099 3.099 0 0 1 1.579 2.867 3.772 3.772 0 0 1-.723 2.253 4.278 4.278 0 0 1-1.911 1.495 11.232 11.232 0 0 1-4.156.715c-1.082.01-2.162-.11-3.216-.357a4.395 4.395 0 0 1-2.11-.931 1.88 1.88 0 0 1-.632-1.33c0-.448.173-.88.482-1.205a3.821 3.821 0 0 1 1.795-.897 2.862 2.862 0 0 1-1.82-2.593 3.131 3.131 0 0 1 .74-1.953 5.89 5.89 0 0 1 2.352-1.662 5.747 5.747 0 0 1-2.71-1.878 4.503 4.503 0 0 1-.831-2.693 4.598 4.598 0 0 1 1.563-3.457 5.658 5.658 0 0 1 4.03-1.446 7.044 7.044 0 0 1 2.676.524Zm-3.241 15.465a4.645 4.645 0 0 0-1.886.25 1.365 1.365 0 0 0-.831 1.221 1.655 1.655 0 0 0 .831 1.347 5.608 5.608 0 0 0 3.099.606 7.12 7.12 0 0 0 3.059-.54 1.66 1.66 0 0 0 1.113-1.513.911.911 0 0 0-.208-.614 1.993 1.993 0 0 0-1.138-.599 28.706 28.706 0 0 0-4.039-.15V22.4Zm.831-15.133a1.658 1.658 0 0 0-1.371.831c-.371.554-.557 1.732-.557 3.532a5.66 5.66 0 0 0 .549 2.975 1.582 1.582 0 0 0 1.304.831 1.664 1.664 0 0 0 1.396-.83 5.95 5.95 0 0 0 .557-3.117 6.97 6.97 0 0 0-.631-3.557 1.413 1.413 0 0 0-1.255-.69l.008.025Z" fill="#fff"/></svg>