<svg width="131" height="27" fill="none" xmlns="http://www.w3.org/2000/svg"><path d="m12.23.194.157 6.582h-.573a6.832 6.832 0 0 0-1.994-3.98 4.911 4.911 0 0 0-3.433-1.513 3.132 3.132 0 0 0-2.26.83 2.494 2.494 0 0 0-.831 1.83c-.008.406.092.807.29 1.163.348.514.791.957 1.305 1.304a28.855 28.855 0 0 0 3 1.72 13.5 13.5 0 0 1 4.488 3.217 5.593 5.593 0 0 1 1.147 3.465 5.713 5.713 0 0 1-1.853 4.263 6.509 6.509 0 0 1-4.704 1.787c-.56 0-1.117-.064-1.662-.191-.687-.181-1.357-.42-2.003-.715a2.926 2.926 0 0 0-1.097-.25 1.34 1.34 0 0 0-.773.292c-.296.23-.524.537-.656.889H.263v-7.48h.515a8.667 8.667 0 0 0 2.368 4.796 5.435 5.435 0 0 0 3.781 1.662 3.465 3.465 0 0 0 2.494-.89 2.758 2.758 0 0 0 .573-3.423 4.258 4.258 0 0 0-1.08-1.247 16.244 16.244 0 0 0-2.568-1.537 22.001 22.001 0 0 1-3.715-2.26A6.848 6.848 0 0 1 .886 8.404a5.337 5.337 0 0 1-.607-2.493A5.471 5.471 0 0 1 1.941 1.89 5.694 5.694 0 0 1 6.097.227a6.873 6.873 0 0 1 1.795.2 8.745 8.745 0 0 1 1.662.648c.405.242.854.403 1.32.474a.73.73 0 0 0 .574-.233c.21-.34.344-.724.391-1.122h.39Zm9.249 18.192c-1.596 1.468-3.025 2.202-4.288 2.202a2.493 2.493 0 0 1-1.862-.765 2.645 2.645 0 0 1-.74-1.911 3.818 3.818 0 0 1 1.289-2.8c.858-.832 2.726-1.94 5.6-3.325v-1.371a6.905 6.905 0 0 0-.157-1.945 1.545 1.545 0 0 0-.607-.698 1.77 1.77 0 0 0-1.005-.299 2.494 2.494 0 0 0-1.496.424.745.745 0 0 0-.366.615c.04.289.179.556.39.756.316.326.505.753.533 1.205a1.66 1.66 0 0 1-.507 1.213 1.82 1.82 0 0 1-1.338.5 2.077 2.077 0 0 1-1.471-.558 1.718 1.718 0 0 1-.59-1.296c.025-.746.32-1.458.83-2.003a4.988 4.988 0 0 1 2.17-1.454 8.737 8.737 0 0 1 2.967-.466 4.753 4.753 0 0 1 2.941.831 3.83 3.83 0 0 1 1.405 1.787c.161.91.217 1.836.166 2.76v5.284c-.018.392.004.785.067 1.172a.708.708 0 0 0 .207.358c.09.076.206.117.324.116.244 0 .49-.18.74-.54l.415.349a5.218 5.218 0 0 1-1.445 1.562 3.043 3.043 0 0 1-1.662.49 2.576 2.576 0 0 1-1.746-.548 2.493 2.493 0 0 1-.764-1.645Zm0-1.064v-4.563a8.312 8.312 0 0 0-2.493 2.21 2.768 2.768 0 0 0-.549 1.588c-.002.439.164.862.466 1.18a1.239 1.239 0 0 0 .98.39 2.643 2.643 0 0 0 1.596-.805ZM32.905 8.18v9.474a3.25 3.25 0 0 0 .283 1.72 1.962 1.962 0 0 0 1.662.499v.523h-7.72v-.523c.428.022.856-.049 1.255-.208.23-.115.41-.31.506-.548a4.77 4.77 0 0 0 .142-1.454V8.205H27.13V6.776h1.903V5.089a4.612 4.612 0 0 1 1.462-3.499 5.56 5.56 0 0 1 3.99-1.396 4.03 4.03 0 0 1 2.55.673 1.913 1.913 0 0 1 .832 1.488 1.503 1.503 0 0 1-.515 1.138 1.937 1.937 0 0 1-1.372.482 1.662 1.662 0 0 1-1.155-.39 1.17 1.17 0 0 1-.424-.873c.014-.182.041-.362.083-.54.037-.152.056-.309.058-.465a.566.566 0 0 0-.166-.449.747.747 0 0 0-.548-.216.832.832 0 0 0-.682.349c-.21.334-.306.728-.274 1.122V6.8H34.8v1.43l-1.895-.05Zm13.471 4.879h-7.171a7.229 7.229 0 0 0 1.387 4.28 2.885 2.885 0 0 0 2.32 1.204 2.568 2.568 0 0 0 1.545-.44 6.093 6.093 0 0 0 1.446-1.72l.473.324a8.2 8.2 0 0 1-2.351 3.2 5.273 5.273 0 0 1-5.904.07 5.279 5.279 0 0 1-1.476-1.459 8.476 8.476 0 0 1-1.205-4.662 7.936 7.936 0 0 1 1.77-5.426 5.36 5.36 0 0 1 4.155-2.02 4.423 4.423 0 0 1 3.45 1.662 7.961 7.961 0 0 1 1.561 4.987Zm-3.44-.973a13.981 13.981 0 0 0-.241-3.183 2.659 2.659 0 0 0-.731-1.321 1.13 1.13 0 0 0-.782-.266 1.364 1.364 0 0 0-1.188.74 6.583 6.583 0 0 0-.83 3.557v.507l3.772-.034Zm8.859-10.288v4.986h3.1v1.438h-3.1v8.402c-.012.51.036 1.02.14 1.52.064.22.195.415.375.557.131.103.29.164.457.175.604 0 1.177-.48 1.72-1.438l.416.324c-.754 1.862-1.978 2.792-3.673 2.792a3.325 3.325 0 0 1-3.2-2.326 14.278 14.278 0 0 1-.15-2.676v-7.33h-1.703v-.507a18.278 18.278 0 0 0 3-2.726 16.613 16.613 0 0 0 2.16-3.19h.458Zm8.941 19.114-4.221-10.056a13.234 13.234 0 0 0-1.404-2.784 2.386 2.386 0 0 0-1.097-.73V6.8h6.947v.54a1.572 1.572 0 0 0-.964.274.772.772 0 0 0-.283.599 7.27 7.27 0 0 0 .699 2.185l2.235 5.327 1.52-4.155c.429-.972.709-2.003.832-3.058a1.12 1.12 0 0 0-.341-.831 1.869 1.869 0 0 0-1.213-.35v-.54h4.37v.54a1.613 1.613 0 0 0-1.046.516 13.077 13.077 0 0 0-1.355 3.025l-3.731 10.072a22.581 22.581 0 0 1-2.094 4.662 2.958 2.958 0 0 1-2.419 1.222 2.606 2.606 0 0 1-1.911-.69 2.226 2.226 0 0 1-.723-1.662 2.01 2.01 0 0 1 .499-1.396 1.581 1.581 0 0 1 1.221-.557 1.454 1.454 0 0 1 1.122.465c.317.41.474.921.44 1.438-.017.245.026.49.125.715a.367.367 0 0 0 .325.158 1.023 1.023 0 0 0 .714-.424 9.202 9.202 0 0 0 1.313-2.793l.44-1.171ZM96.962.643v.54a1.745 1.745 0 0 0-.897.308 2.23 2.23 0 0 0-.64.83c-.056.117-.35.87-.881 2.261L88.6 20.88h-.549L83.357 8.146l-5.169 12.698h-.49L71.432 4.748a17.622 17.622 0 0 0-1.33-2.942 1.66 1.66 0 0 0-1.271-.598V.643h8.219v.54a2.244 2.244 0 0 0-1.322.316.897.897 0 0 0-.332.706c.118.81.347 1.598.681 2.344l3.715 9.582 2.975-7.48-.781-2.094a16.023 16.023 0 0 0-.964-2.302 2.21 2.21 0 0 0-.831-.83 2.857 2.857 0 0 0-1.338-.25V.643h9.183v.54a4.879 4.879 0 0 0-1.388.158.929.929 0 0 0-.64.914c.139.705.35 1.392.632 2.053l3.523 9.332 3.092-8.46c.23-.587.43-1.186.598-1.795.07-.291.106-.59.108-.889a1.179 1.179 0 0 0-.39-.939c-.447-.28-.97-.41-1.496-.374v-.54h4.886Zm4.396 6.133V17.58a3.33 3.33 0 0 0 .324 1.845 1.662 1.662 0 0 0 1.255.457v.524h-7.055v-.532a1.661 1.661 0 0 0 1.288-.524c.254-.556.351-1.17.282-1.778V9.618a3.324 3.324 0 0 0-.324-1.845 1.664 1.664 0 0 0-1.246-.457v-.54h5.476ZM99.396.178a2.035 2.035 0 0 1 1.537.665 2.224 2.224 0 0 1 .632 1.596 2.195 2.195 0 0 1-.64 1.586 2.062 2.062 0 0 1-1.529.657 2.035 2.035 0 0 1-1.52-.657 2.21 2.21 0 0 1-.632-1.587 2.233 2.233 0 0 1 .631-1.595 2.016 2.016 0 0 1 1.521-.665Zm8.742 6.598v1.762a7.782 7.782 0 0 1 1.928-1.662 4 4 0 0 1 1.987-.515 3.08 3.08 0 0 1 2.11.73 3.543 3.543 0 0 1 1.122 1.829c.191 1.052.266 2.123.225 3.191v5.302a4.182 4.182 0 0 0 .274 1.961 1.561 1.561 0 0 0 1.138.49v.524h-6.648v-.515a1.368 1.368 0 0 0 1.064-.64 4.35 4.35 0 0 0 .224-1.803v-6.034a10.287 10.287 0 0 0-.125-2.11 1.295 1.295 0 0 0-.423-.673 1.04 1.04 0 0 0-.665-.241c-.804 0-1.549.598-2.236 1.795v7.296a4.223 4.223 0 0 0 .275 1.936 1.37 1.37 0 0 0 1.013.507v.524h-6.648v-.557a1.596 1.596 0 0 0 1.172-.557 4.243 4.243 0 0 0 .241-1.895V9.734a4.061 4.061 0 0 0-.274-1.92 1.663 1.663 0 0 0-1.139-.498v-.54h5.385Zm17.568.158h4.405v1.604h-2.493c.384.377.704.815.947 1.296a4.373 4.373 0 0 1-.441 4.155 5.177 5.177 0 0 1-2.11 1.662 5.867 5.867 0 0 1-2.369.607l-1.662-.075a1.431 1.431 0 0 0-1.055.432 1.41 1.41 0 0 0-.424 1.03 1.095 1.095 0 0 0 .382.832c.366.256.811.373 1.255.332h2.418c1.956 0 3.302.225 4.039.673a3.099 3.099 0 0 1 1.579 2.867 3.771 3.771 0 0 1-.723 2.253 4.278 4.278 0 0 1-1.911 1.495 11.23 11.23 0 0 1-4.155.715c-1.083.01-2.163-.11-3.216-.357a4.399 4.399 0 0 1-2.111-.931 1.88 1.88 0 0 1-.632-1.33c0-.448.173-.88.482-1.205a3.826 3.826 0 0 1 1.795-.897 2.862 2.862 0 0 1-1.82-2.593 3.131 3.131 0 0 1 .74-1.953 5.89 5.89 0 0 1 2.352-1.662 5.752 5.752 0 0 1-2.71-1.878 4.496 4.496 0 0 1-.83-2.693A4.58 4.58 0 0 1 119 7.856a5.658 5.658 0 0 1 4.03-1.446 7.044 7.044 0 0 1 2.676.524Zm-3.241 15.465a4.643 4.643 0 0 0-1.886.25 1.365 1.365 0 0 0-.831 1.221 1.666 1.666 0 0 0 .831 1.347 5.608 5.608 0 0 0 3.099.606 7.117 7.117 0 0 0 3.059-.54 1.667 1.667 0 0 0 1.113-1.513.906.906 0 0 0-.208-.614 1.99 1.99 0 0 0-1.138-.599 28.706 28.706 0 0 0-4.039-.15V22.4Zm.831-15.133a1.661 1.661 0 0 0-1.371.831c-.371.554-.557 1.732-.557 3.532a5.66 5.66 0 0 0 .549 2.975 1.582 1.582 0 0 0 1.305.831 1.66 1.66 0 0 0 1.396-.83c.463-.97.656-2.047.556-3.117a6.97 6.97 0 0 0-.631-3.557 1.413 1.413 0 0 0-1.255-.69l.008.025Z" fill="#010E17"/></svg>