<svg width="56" height="55" fill="none" xmlns="http://www.w3.org/2000/svg"><g clip-path="url(#a)"><path d="M46.703 0H9.297A9.297 9.297 0 0 0 0 9.297v36.006A9.297 9.297 0 0 0 9.297 54.6h37.406A9.297 9.297 0 0 0 56 45.303V9.297A9.297 9.297 0 0 0 46.703 0Z" fill="#001E36"/><path d="M12.61 38.289V14.284c0-.175.075-.263.225-.263h.238l.407-.005.564-.011 1.893-.04 2.028-.038c.714-.012 1.422-.019 2.123-.019 1.903 0 3.506.238 4.808.714a8.342 8.342 0 0 1 3.137 1.916 7.35 7.35 0 0 1 1.71 2.648c.351.97.53 1.993.526 3.024 0 2.004-.464 3.657-1.39 4.96a7.853 7.853 0 0 1-3.632 2.79l-.125.046c-1.525.569-3.215.774-5.067.787l-.288.001-.427-.002-.216-.003-.24-.006-.145-.006-.088-.004-.216-.008-.264-.006-.399-.003h-.088v7.495a.3.3 0 0 1-.338.339h-4.473c-.176 0-.263-.1-.263-.301Zm5.074-19.76v7.83c.3.024.6.036.901.037h1.24a8.81 8.81 0 0 0 2.523-.378l.163-.05a4.05 4.05 0 0 0 1.916-1.24c.47-.556.715-1.32.732-2.296v-.109a3.799 3.799 0 0 0-.544-2.066 3.503 3.503 0 0 0-1.634-1.334 6.963 6.963 0 0 0-2.743-.47l-.476.002-.3.003-.287.004-.405.007-.295.009-.154.005-.205.01-.174.01-.1.009-.086.008-.038.004-.034.005Zm27.11 6.406a8.787 8.787 0 0 0-2.07-.753l-.165-.036a11.866 11.866 0 0 0-2.409-.298l-.202-.003a4.857 4.857 0 0 0-1.409.17 1.265 1.265 0 0 0-.733.469c-.122.19-.187.412-.188.639.007.22.087.43.226.6.2.234.439.43.707.577l.082.043c.535.289 1.087.546 1.653.77 1.26.422 2.465.997 3.587 1.71a5.456 5.456 0 0 1 1.841 1.935c.373.745.56 1.57.545 2.404a5.401 5.401 0 0 1-.902 3.1 5.931 5.931 0 0 1-2.61 2.084c-1.103.484-2.456.734-4.06.75l-.167.002c-.994.01-1.988-.078-2.965-.26l-.21-.041a10.123 10.123 0 0 1-2.385-.752.487.487 0 0 1-.263-.413v-4.094a.221.221 0 0 1 .094-.207.182.182 0 0 1 .207.019c.899.53 1.875.916 2.892 1.145.898.225 1.818.345 2.743.357.876 0 1.521-.112 1.934-.338a1.062 1.062 0 0 0 .62-.977c0-.325-.188-.638-.563-.939a3.982 3.982 0 0 0-.678-.41l-.14-.07-.15-.07-.08-.037-.164-.073a13.108 13.108 0 0 0-.086-.037l-.18-.075-.093-.038-.194-.078-.1-.04-.209-.08-.218-.081c-1.18-.41-2.298-.98-3.325-1.69a5.733 5.733 0 0 1-1.765-1.973 5.181 5.181 0 0 1-.545-2.385 5.386 5.386 0 0 1 .79-2.818 5.732 5.732 0 0 1 2.441-2.141c1.102-.55 2.48-.826 4.132-.827.968-.007 1.936.062 2.893.207.693.088 1.37.271 2.014.545.103.03.187.106.225.207.026.091.038.186.038.281v3.794a.252.252 0 0 1-.113.226.363.363 0 0 1-.323 0Z" fill="#31A8FF"/></g><defs><clipPath id="a"><rect width="56" height="54.688" rx="8" fill="#fff"/></clipPath></defs></svg>