<svg width="1198" height="59" fill="none" xmlns="http://www.w3.org/2000/svg"><path d="m-36 29.5 4.772-3.734.53-.411.53-.411.53-.41.53-.408.531-.407.53-.405.53-.404.53-.403.531-.4.53-.4.53-.396.53-.395.53-.393.531-.39.53-.388.53-.386.53-.383.531-.381.53-.378.53-.375.53-.373.53-.37.531-.366.53-.363.53-.36.53-.356.531-.353.53-.35.53-.346.53-.343.53-.338.531-.335.53-.331.53-.327.53-.323.53-.318.531-.315.53-.31.53-.305.53-.302.531-.296.53-.292.53-.288.53-.282.53-.278.531-.273.53-.268.53-.262.53-.258.531-.253.53-.247.53-.242.53-.237.53-.23.531-.227.53-.22.53-.215.53-.209.531-.203.53-.198.53-.192.53-.186.53-.18.531-.174.53-.168.53-.163.53-.156.531-.15.53-.144.53-.138.53-.132.53-.126.531-.119.53-.113.53-.106.53-.1.531-.095.53-.087.53-.082.53-.074.53-.069.531-.062.53-.055.53-.049.53-.042.531-.036.53-.03.53-.023.53-.016.53-.01.531-.003.53.003.53.01.53.016.531.023.53.03.53.036.53.042.53.049.531.055.53.062.53.069.53.074.531.082.53.087.53.094.53.1.53.107.531.113.53.12.53.125.53.132.531.138.53.144.53.15.53.156.53.162.531.169.53.174.53.18.53.186.53.192.531.198.53.203.53.21.53.214.531.22.53.226.53.231.53.237.53.242.531.247.53.253.53.258.53.262.531.268.53.273.53.278.53.282.53.288.531.292.53.296.53.302.53.305.531.31.53.315.53.318.53.323.53.327.531.33.53.336.53.338.53.343.531.346.53.35.53.353.53.356.53.36.531.363.53.367.53.37.53.372.531.375.53.378.53.38.53.384.53.386.531.388.53.39.53.393.53.395.531.397.53.399.53.4.53.403.53.404.531.405.53.407.53.408.53.41.531.41.53.412 9.544 7.468.53.411.53.411.53.41.531.408.53.407.53.405.53.404.53.403.531.4.53.4.53.396.53.395.531.393.53.39.53.388.53.386.53.383.531.381.53.378.53.375.53.373.531.37.53.365.53.364.53.36.53.356.531.353.53.35.53.346.53.343.531.338.53.335.53.331.53.327.53.323.531.318.53.315.53.31.53.306.531.3.53.297.53.292.53.288.53.282.531.278.53.273.53.268.531.262.53.258.53.253.53.247.531.242.53.237.53.23.53.227.531.22.53.215.53.209.53.203.53.198.531.192.53.186.53.18.53.174.531.169.53.162.53.156.53.15.53.144.531.138.53.132.53.125.53.12.531.113.53.106.53.1.53.095.53.087.531.082.53.074.53.069.53.062.531.055.53.049.53.042.53.036.53.03.531.023.53.016.53.01.53.003.53-.003.531-.01.53-.016.53-.023.53-.03.531-.036.53-.042.53-.049.53-.055.53-.062.531-.069.53-.074.53-.082.53-.087.531-.094.53-.1.53-.107.53-.113.53-.12.531-.125.53-.132.53-.138.53-.144.531-.15.53-.156.53-.162.53-.169.53-.174.531-.18.53-.186.53-.192.53-.198.531-.203.53-.21.53-.214.53-.22.53-.226.531-.231.53-.237.53-.242.53-.247.531-.253.53-.258.53-.262.53-.268.53-.273.531-.278.53-.282.53-.288.53-.292.531-.296.53-.301.53-.306.53-.31.53-.315.531-.318.53-.323.53-.327.53-.33.531-.336.53-.338.53-.343.53-.346.53-.35.531-.353.53-.356.53-.36.53-.364.531-.366.53-.37.53-.372.53-.375.53-.378.531-.38.53-.384.53-.386.53-.388.531-.39.53-.393.53-.395.53-.397.53-.399.531-.4.53-.403.53-.404.53-.405.53-.407.531-.408.53-.41.53-.41.53-.412 4.242-3.318m.53-.416 4.772-3.734.531-.411.53-.411.53-.41.53-.408.53-.407.531-.405.53-.404.53-.403.53-.4.531-.4.53-.396.53-.395.53-.393.53-.39.531-.388.53-.386.53-.383.53-.381.531-.378.53-.375.53-.373.53-.37.53-.366.531-.363.53-.36.53-.356.53-.353.531-.35.53-.346.53-.343.53-.338.53-.335.531-.331.53-.327.53-.323.53-.318.531-.315.53-.31.53-.305.53-.302.53-.296.531-.292.53-.288.53-.282.53-.278.531-.273.53-.268.53-.262.53-.258.53-.253.531-.247.53-.242.53-.237.53-.23.531-.227.53-.22.53-.215.53-.209.53-.203.531-.198.53-.192.53-.186.53-.18.53-.174.531-.168.53-.163.53-.156.53-.15.531-.144.53-.138.53-.132.53-.126.53-.119.531-.113.53-.106.53-.1.53-.095.531-.087.53-.082.53-.074.53-.069.53-.062.531-.055.53-.049.53-.042.53-.036.531-.03.53-.023.53-.016.53-.01.53-.003.531.003.53.01.53.016.53.023.531.03.53.036.53.042.53.049.53.055.531.062.53.069.53.074.53.082.531.087.53.094.53.1.53.107.53.113.531.12.53.125.53.132.53.138.531.144.53.15.53.156.53.162.53.169.531.174.53.18.53.186.53.192.531.198.53.203.53.21.53.214.53.22.531.226.53.231.53.237.53.242.531.247.53.253.53.258.53.262.53.268.531.273.53.278.53.282.53.288.531.292.53.296.53.302.53.305.53.31.531.315.53.318.53.323.53.327.53.33.531.336.53.338.53.343.53.346.531.35.53.353.53.356.53.36.53.363.531.367.53.37.53.372.53.375.531.378.53.38.53.384.53.386.53.388.531.39.53.393.53.395.53.397.531.399.53.4.53.403.53.404.53.405.531.407.53.408.53.41.53.41.531.412 9.544 7.468.53.411.53.411.53.41.53.408.531.407.53.405.53.404.53.403.531.4.53.4.53.396.53.395.53.393.531.39.53.388.53.386.53.383.531.381.53.378.53.375.53.373.53.37.531.365.53.364.53.36.53.356.531.353.53.35.53.346.53.343.53.338.531.335.53.331.53.327.53.323.53.318.531.315.53.31.53.306.53.3.531.297.53.292.53.288.53.282.53.278.531.273.53.268.53.262.53.258.531.253.53.247.53.242.53.237.53.23.531.227.53.22.53.215.53.209.531.203.53.198.53.192.53.186.53.18.531.174.53.169.53.162.53.156.531.15.53.144.53.138.53.132.53.125.531.12.53.113.53.106.53.1.531.095.53.087.53.082.53.074.53.069.531.062.53.055.53.049.53.042.531.036.53.03.53.023.53.016.53.01.531.003.53-.003.53-.01.53-.016.531-.023.53-.03.53-.036.53-.042.53-.049.531-.055.53-.062.53-.069.53-.074.531-.082.53-.087.53-.094.53-.1.53-.107.531-.113.53-.12.53-.125.53-.132.531-.138.53-.144.53-.15.53-.156.53-.162.531-.169.53-.174.53-.18.53-.186.53-.192.531-.198.53-.203.53-.21.53-.214.531-.22.53-.226.53-.231.53-.237.53-.242.531-.247.53-.253.53-.258.53-.262.531-.268.53-.273.53-.278.53-.282.53-.288.531-.292.53-.296.53-.301.53-.306.531-.31.53-.315.53-.318.53-.323.53-.327.531-.33.53-.336.53-.338.53-.343.531-.346.53-.35.53-.353.53-.356.53-.36.531-.364.53-.366.53-.37.53-.372.531-.375.53-.378.53-.38.53-.384.53-.386.531-.388.53-.39.53-.393.53-.395.531-.397.53-.399.53-.4.53-.403.53-.404.531-.405.53-.407.53-.408.53-.41.531-.41.53-.412 4.242-3.318m.53-.416 4.772-3.734.53-.411.53-.411.53-.41.531-.408.53-.407.53-.405.53-.404.53-.403.531-.4.53-.4.53-.396.53-.395.531-.393.53-.39.53-.388.53-.386.53-.383.531-.381.53-.378.53-.375.53-.373.531-.37.53-.366.53-.363.53-.36.53-.356.531-.353.53-.35.53-.346.53-.343.531-.338.53-.335.53-.331.53-.327.53-.323.531-.318.53-.315.53-.31.53-.305.531-.302.53-.296.53-.292.53-.288.53-.282.531-.278.53-.273.53-.268.53-.262.531-.258.53-.253.53-.247.53-.242.53-.237.531-.23.53-.227.53-.22.53-.215.531-.209.53-.203.53-.198.53-.192.53-.186.531-.18.53-.174.53-.168.53-.163.531-.156.53-.15.53-.144.53-.138.53-.132.531-.126.53-.119.53-.113.53-.106.531-.1.53-.095.53-.087.53-.082.53-.074.531-.069.53-.062.53-.055.53-.049.531-.042.53-.036.53-.03.53-.023.53-.016.531-.01.53-.003.53.003.53.01.53.016.531.023.53.03.53.036.53.042.531.049.53.055.53.062.53.069.53.074.531.082.53.087.53.094.53.1.531.107.53.113.53.12.53.125.53.132.531.138.53.144.53.15.53.156.531.162.53.169.53.174.53.18.53.186.531.192.53.198.53.203.53.21.531.214.53.22.53.226.53.231.53.237.531.242.53.247.53.253.53.258.531.262.53.268.53.273.53.278.53.282.531.288.53.292.53.296.53.302.531.305.53.31.53.315.53.318.53.323.531.327.53.33.53.336.53.338.531.343.53.346.53.35.53.353.53.356.531.36.53.363.53.367.53.37.531.372.53.375.53.378.53.38.53.384.531.386.53.388.53.39.53.393.531.395.53.397.53.399.53.4.53.403.531.404.53.405.53.407.53.408.53.41.531.41.53.412 9.544 7.468.53.411.53.411.531.41.53.408.53.407.53.405.53.404.531.403.53.4.53.4.53.396.531.395.53.393.53.39.53.388.53.386.531.383.53.381.53.378.53.375.531.373.53.37.53.365.53.364.53.36.531.356.53.353.53.35.53.346.531.343.53.338.53.335.53.331.53.327.531.323.53.318.53.315.53.31.531.306.53.3.53.297.53.292.53.288.531.282.53.278.53.273.53.268.531.262.53.258.53.253.53.247.53.242.531.237.53.23.53.227.53.22.531.215.53.209.53.203.53.198.53.192.531.186.53.18.53.174.53.169.53.162.531.156.53.15.53.144.53.138.531.132.53.125.53.12.53.113.53.106.531.1.53.095.53.087.53.082.531.074.53.069.53.062.53.055.53.049.531.042.53.036.53.03.53.023.531.016.53.01.53.003.53-.003.53-.01.531-.016.53-.023.53-.03.53-.036.531-.042.53-.049.53-.055.53-.062.53-.069.531-.074.53-.082.53-.087.53-.094.531-.1.53-.107.53-.113.53-.12.53-.125.531-.132.53-.138.53-.144.53-.15.531-.156.53-.162.53-.169.53-.174.53-.18.531-.186.53-.192.53-.198.53-.203.531-.21.53-.214.53-.22.53-.226.53-.231.531-.237.53-.242.53-.247.53-.253.531-.258.53-.262.53-.268.53-.273.53-.278.531-.282.53-.288.53-.292.53-.296.531-.301.53-.306.53-.31.53-.315.53-.318.531-.323.53-.327.53-.33.53-.336.53-.338.531-.343.53-.346.53-.35.53-.353.531-.356.53-.36.53-.364.53-.366.53-.37.531-.372.53-.375.53-.378.53-.38.531-.384.53-.386.53-.388.53-.39.53-.393.531-.395.53-.397.53-.399.53-.4.531-.403.53-.404.53-.405.53-.407.53-.408.531-.41.53-.41.53-.412 4.242-3.318m.53-.416 4.772-3.734.53-.411.531-.411.53-.41.53-.408.53-.407.53-.405.531-.404.53-.403.53-.4.53-.4.531-.396.53-.395.53-.393.53-.39.53-.388.531-.386.53-.383.53-.381.53-.378.531-.375.53-.373.53-.37.53-.366.53-.363.531-.36.53-.356.53-.353.53-.35.531-.346.53-.343.53-.338.53-.335.53-.331.531-.327.53-.323.53-.318.53-.315.53-.31.531-.305.53-.302.53-.296.53-.292.531-.288.53-.282.53-.278.53-.273.53-.268.531-.262.53-.258.53-.253.53-.247.531-.242.53-.237.53-.23.53-.227.53-.22.531-.215.53-.209.53-.203.53-.198.531-.192.53-.186.53-.18.53-.174.53-.168.531-.163.53-.156.53-.15.53-.144.531-.138.53-.132.53-.126.53-.119.53-.113.531-.106.53-.1.53-.095.53-.087.531-.082.53-.074.53-.069.53-.062.53-.055.531-.049.53-.042.53-.036.53-.03.531-.023.53-.016.53-.01.53-.003.53.003.531.01.53.016.53.023.53.03.531.036.53.042.53.049.53.055.53.062.531.069.53.074.53.082.53.087.531.094.53.1.53.107.53.113.53.12.531.125.53.132.53.138.53.144.531.15.53.156.53.162.53.169.53.174.531.18.53.186.53.192.53.198.53.203.531.21.53.214.53.22.53.226.531.231.53.237.53.242.53.247.53.253.531.258.53.262.53.268.53.273.531.278.53.282.53.288.53.292.53.296.531.302.53.305.53.31.53.315.531.318.53.323.53.327.53.33.53.336.531.338.53.343.53.346.53.35.531.353.53.356.53.36.53.363.53.367.531.37.53.372.53.375.53.378.531.38.53.384.53.386.53.388.53.39.531.393.53.395.53.397.53.399.531.4.53.403.53.404.53.405.53.407.531.408.53.41.53.41.53.412 9.544 7.468.531.411.53.411.53.41.53.408.53.407.531.405.53.404.53.403.53.4.53.4.531.396.53.395.53.393.53.39.531.388.53.386.53.383.53.381.53.378.531.375.53.373.53.37.53.365.531.364.53.36.53.356.53.353.53.35.531.346.53.343.53.338.53.335.531.331.53.327.53.323.53.318.53.315.531.31.53.306.53.3.53.297.531.292.53.288.53.282.53.278.53.273.531.268.53.262.53.258.53.253.531.247.53.242.53.237.53.23.53.227.531.22.53.215.53.209.53.203.531.198.53.192.53.186.53.18.53.174.531.169.53.162.53.156.53.15.531.144.53.138.53.132.53.125.53.12.531.113.53.106.53.1.53.095.531.087.53.082.53.074.53.069.53.062.531.055.53.049.53.042.53.036.531.03.53.023.53.016.53.01.53.003.531-.003.53-.01.53-.016.53-.023.53-.03.531-.036.53-.042.53-.049.53-.055.531-.062.53-.069.53-.074.53-.082.53-.087.531-.094.53-.1.53-.107.53-.113.531-.12.53-.125.53-.132.53-.138.53-.144.531-.15.53-.156.53-.162.53-.169.531-.174.53-.18.53-.186.53-.192.53-.198.531-.203.53-.21.53-.214.53-.22.531-.226.53-.231.53-.237.53-.242.53-.247.531-.253.53-.258.53-.262.53-.268.531-.273.53-.278.53-.282.53-.288.53-.292.531-.296.53-.301.53-.306.53-.31.531-.315.53-.318.53-.323.53-.327.53-.33.531-.336.53-.338.53-.343.53-.346.531-.35.53-.353.53-.356.53-.36.53-.364.531-.366.53-.37.53-.372.53-.375.531-.378.53-.38.53-.384.53-.386.53-.388.531-.39.53-.393.53-.395.53-.397.531-.399.53-.4.53-.403.53-.404.53-.405.531-.407.53-.408.53-.41.53-.41.53-.412 4.242-3.318m.53-.416 4.772-3.734.531-.411.53-.411.53-.41.53-.408.531-.407.53-.405.53-.404.53-.403.53-.4.531-.4.53-.396.53-.395.53-.393.531-.39.53-.388.53-.386.53-.383.53-.381.531-.378.53-.375.53-.373.53-.37.531-.366.53-.363.53-.36.53-.356.53-.353.531-.35.53-.346.53-.343.53-.338.531-.335.53-.331.53-.327.53-.323.53-.318.531-.315.53-.31.53-.305.53-.302.531-.296.53-.292.53-.288.53-.282.53-.278.531-.273.53-.268.53-.262.53-.258.531-.253.53-.247.53-.242.53-.237.53-.23.531-.227.53-.22.53-.215.53-.209.531-.203.53-.198.53-.192.53-.186.53-.18.531-.174.53-.168.53-.163.53-.156.53-.15.531-.144.53-.138.53-.132.53-.126.531-.119.53-.113.53-.106.53-.1.53-.095.531-.087.53-.082.53-.074.53-.069.531-.062.53-.055.53-.049.53-.042.53-.036.531-.03.53-.023.53-.016.53-.01.531-.003.53.003.53.01.53.016.53.023.531.03.53.036.53.042.53.049.531.055.53.062.53.069.53.074.53.082.531.087.53.094.53.1.53.107.531.113.53.12.53.125.53.132.53.138.531.144.53.15.53.156.53.162.531.169.53.174.53.18.53.186.53.192.531.198.53.203.53.21.53.214.531.22.53.226.53.231.53.237.53.242.531.247.53.253.53.258.53.262.531.268.53.273.53.278.53.282.53.288.531.292.53.296.53.302.53.305.531.31.53.315.53.318.53.323.53.327.531.33.53.336.53.338.53.343.53.346.531.35.53.353.53.356.53.36.531.363.53.367.53.37.53.372.53.375.531.378.53.38.53.384.53.386.531.388.53.39.53.393.53.395.53.397.531.399.53.4.53.403.53.404.531.405.53.407.53.408.53.41.53.41.531.412 9.544 7.468.53.411.53.411.53.41.531.408.53.407.53.405.53.404.53.403.531.4.53.4.53.396.53.395.531.393.53.39.53.388.53.386.53.383.531.381.53.378.53.375.53.373.531.37.53.365.53.364.53.36.53.356.531.353.53.35.53.346.53.343.531.338.53.335.53.331.53.327.53.323.531.318.53.315.53.31.53.306.53.3.531.297.53.292.53.288.53.282.531.278.53.273.53.268.53.262.53.258.531.253.53.247.53.242.53.237.531.23.53.227.53.22.53.215.53.209.531.203.53.198.53.192.53.186.531.18.53.174.53.169.53.162.53.156.531.15.53.144.53.138.53.132.531.125.53.12.53.113.53.106.53.1.531.095.53.087.53.082.53.074.531.069.53.062.53.055.53.049.53.042.531.036.53.03.53.023.53.016.531.01.53.003.53-.003.53-.01.53-.016.531-.023.53-.03.53-.036.53-.042.531-.049.53-.055.53-.062.53-.069.53-.074.531-.082.53-.087.53-.094.53-.1.531-.107.53-.113.53-.12.53-.125.53-.132.531-.138.53-.144.53-.15.53-.156.531-.162.53-.169.53-.174.53-.18.53-.186.531-.192.53-.198.53-.203.53-.21.53-.214.531-.22.53-.226.53-.231.53-.237.531-.242.53-.247.53-.253.53-.258.53-.262.531-.268.53-.273.53-.278.53-.282.531-.288.53-.292.53-.296.53-.301.53-.306.529-.31.53-.315.53-.318.53-.323.53-.327.53-.33.53-.336.53-.338.53-.343.53-.346.53-.35.53-.353.53-.356.53-.36.53-.364.54-.366.53-.37.53-.372.53-.375.53-.378.53-.38.53-.384.53-.386.53-.388.53-.39.53-.393.53-.395.53-.397.53-.399.53-.4.53-.403.53-.404.53-.405.53-.407.53-.408.53-.41.53-.41.53-.412 4.24-3.318m.53-.416 4.77-3.734.53-.411.53-.411.53-.41.53-.408.53-.407.54-.405.53-.404.53-.403.53-.4.53-.4.53-.396.53-.395.53-.393.53-.39.53-.388.53-.386.53-.383.53-.381.53-.378.53-.375.53-.373.53-.37.53-.366.53-.363.53-.36.53-.356.53-.353.53-.35.53-.346.53-.343.53-.338.53-.335.53-.331.53-.327.53-.323.53-.318.53-.315.53-.31.53-.305.53-.302.53-.296.53-.292.53-.288.53-.282.53-.278.53-.273.53-.268.53-.262.53-.258.53-.253.54-.247.53-.242.53-.237.53-.23.53-.227.53-.22.53-.215.53-.209.53-.203.53-.198.53-.192.53-.186.53-.18.53-.174.53-.168.53-.163.53-.156.53-.15.53-.144.53-.138.53-.132.53-.126.53-.119.53-.113.53-.106.53-.1.53-.095.53-.087.53-.082.53-.074.53-.069.53-.062.53-.055.53-.049.53-.042.53-.036.53-.03.53-.023.53-.016.53-.01.53-.003.53.003.53.01.53.016.53.023.54.03.53.036.53.042.53.049.53.055.53.062.53.069.53.074.53.082.53.087.53.094.53.1.53.107.53.113.53.12.53.125.53.132.53.138.53.144.53.15.53.156.53.162.53.169.53.174.53.18.53.186.53.192.53.198.53.203.53.21.53.214.53.22.53.226.53.231.53.237.53.242.53.247.53.253.53.258.53.262.53.268.53.273.53.278.53.282.53.288.53.292.54.296.53.302.53.305.53.31.53.315.53.318.53.323.53.327.53.33.53.336.53.338.53.343.53.346.53.35.53.353.53.356.53.36.53.363.53.367.53.37.53.372.53.375.53.378.53.38.53.384.53.386.53.388.53.39.53.393.53.395.53.397.53.399.53.4.53.403.53.404.53.405.53.407.53.408.53.41.53.41.53.412 9.55 7.468.53.411.53.411.53.41.53.408.53.407.53.405.53.404.53.403.53.4.53.4.53.396.53.395.53.393.53.39.53.388.53.386.53.383.53.381.53.378.53.375.53.373.53.37.53.365.53.364.53.36.53.356.53.353.53.35.53.346.53.343.53.338.54.335.53.331.53.327.53.323.53.318.53.315.53.31.53.306.53.3.53.297.53.292.53.288.53.282.53.278.53.273.53.268.53.262.53.258.53.253.53.247.53.242.53.237.53.23.53.227.53.22.53.215.53.209.53.203.53.198.53.192.53.186.53.18.53.174.53.169.53.162.53.156.53.15.53.144.53.138.53.132.53.125.53.12.53.113.53.106.53.1.54.095.53.087.53.082.53.074.53.069.53.062.53.055.53.049.53.042.53.036.53.03.53.023.53.016.53.01.53.003.53-.003.53-.01.53-.016.53-.023.53-.03.53-.036.53-.042.53-.049.53-.055.53-.062.53-.069.53-.074.53-.082.53-.087.53-.094.53-.1.53-.107.53-.113.53-.12.53-.125.53-.132.53-.138.53-.144.53-.15.53-.156.53-.162.53-.169.53-.174.53-.18.53-.186.53-.192.54-.198.53-.203.53-.21.53-.214.53-.22.53-.226.53-.231.53-.237.53-.242.53-.247.53-.253.53-.258.53-.262.53-.268.53-.273.53-.278.53-.282.53-.288.53-.292.53-.296.53-.301.53-.306.53-.31.53-.315.53-.318.53-.323.53-.327.53-.33.53-.336.53-.338.53-.343.53-.346.53-.35.53-.353.53-.356.53-.36.53-.364.53-.366.53-.37.53-.372.53-.375.53-.378.53-.38.53-.384.53-.386.54-.388.53-.39.53-.393.53-.395.53-.397.53-.399.53-.4.53-.403.53-.404.53-.405.53-.407.53-.408.53-.41.53-.41.53-.412 4.24-3.318" stroke="url(#a)" stroke-width="5" stroke-miterlimit="10" stroke-linecap="round" stroke-linejoin="round"/><defs><linearGradient id="a" x1="3" y1="29" x2="1198.5" y2="29" gradientUnits="userSpaceOnUse"><stop stop-color="#fff" stop-opacity=".4"/><stop offset=".516" stop-color="#fff" stop-opacity=".71"/><stop offset="1" stop-color="#fff" stop-opacity=".17"/></linearGradient></defs></svg>