<svg width="20" height="20" fill="none" xmlns="http://www.w3.org/2000/svg"><path d="M5.417 16.667c-1.264 0-2.344-.438-3.24-1.313C1.283 14.48.834 13.41.834 12.146c0-1.084.327-2.049.98-2.896a4.331 4.331 0 0 1 2.562-1.625 5.808 5.808 0 0 1 1.782-2.833 5.718 5.718 0 0 1 3.01-1.396v6.729L7.834 8.833 6.667 10 10 13.333 13.334 10l-1.167-1.167-1.333 1.292v-6.73c1.43.195 2.621.837 3.573 1.927.95 1.091 1.427 2.372 1.427 3.845a3.64 3.64 0 0 1 2.385 1.239c.632.715.948 1.552.948 2.51 0 1.042-.365 1.928-1.094 2.657-.729.73-1.614 1.094-2.656 1.094h-10Z" fill="#0294FF"/></svg>