<svg width="18" height="14" fill="none" xmlns="http://www.w3.org/2000/svg"><path d="M17.305 2.453a1.836 1.836 0 0 0-1.133-1.273C13.5.148 9.234.156 9 .156c-.234 0-4.5-.008-7.172 1.024A1.836 1.836 0 0 0 .695 2.453C.492 3.227.25 4.648.25 7s.242 3.773.445 4.547a1.836 1.836 0 0 0 1.133 1.273c2.563.992 6.578 1.024 7.117 1.024h.11c.539 0 4.554-.031 7.117-1.024a1.836 1.836 0 0 0 1.133-1.273c.203-.774.445-2.195.445-4.547s-.242-3.773-.445-4.547Zm-5.633 4.805-3.75 2.5a.281.281 0 0 1-.172.055.352.352 0 0 1-.148-.04.305.305 0 0 1-.165-.273v-5a.305.305 0 0 1 .165-.273.313.313 0 0 1 .32.015l3.75 2.5a.304.304 0 0 1 0 .516Z" fill="#fff"/></svg>